<svg xmlns="http://www.w3.org/2000/svg" viewBox="0 0 458.74 83.83"><defs><style>.cls-1{isolation:isolate;}.cls-2{font-size:77.37px;font-family:Bauhaus93, "Bauhaus 93";}.cls-2,.cls-5,.cls-6{fill:#005366;}.cls-3,.cls-4{fill:#009e69;}.cls-4{opacity:0.23;}.cls-4,.cls-6{mix-blend-mode:multiply;}.cls-6{opacity:0.2;}</style></defs><title>CMMS-rightcmms-full-logo</title><g class="cls-1"><g id="Layer_2" data-name="Layer 2"><g id="Layer_26" data-name="Layer 26"><text class="cls-2" transform="translate(108.19 64.49)">rightcmms</text></g><g id="Layer_27" data-name="Layer 27"><path class="cls-3" d="M95.4,31.61,61.45,65.55a12,12,0,0,1-17,0l-17-17a12,12,0,0,1,17-17L53,40.1,78.59,14.48a12,12,0,0,1,16.28-.32h0l.52.48A12,12,0,0,1,95.4,31.61Z"/><path class="cls-4" d="M98.61,20.47a12,12,0,0,0-4.35-.82,11.84,11.84,0,0,0-7.55,2.69l-.95.94L68.93,40.1H53L78.43,14.64l.16-.16a12,12,0,0,1,16.28-.32h0l.52.48A11.9,11.9,0,0,1,98.61,20.47Z"/><path class="cls-5" d="M39,65.07a12,12,0,0,1-20.49,8.49l-8-8A36,36,0,0,1,61.45,14.64l8,8a12,12,0,1,1-17,17l-8-8a12,12,0,0,0-17,17l8,8A12,12,0,0,1,39,65.07Z"/><path class="cls-5" d="M62.27,43.05,63,43h0Z"/><path class="cls-5" d="M31.66,76.13a12,12,0,0,0,1.64-.83A10.09,10.09,0,0,1,31.66,76.13Z"/><path class="cls-5" d="M69.45,39.62A11.93,11.93,0,0,1,63,43a11.93,11.93,0,0,0,6.43-3.33l0,0Z"/><path class="cls-5" d="M53.27,40.33l-.05,0h0l-.09-.09a.73.73,0,0,0-.09-.08h0l-.56-.56c.19.18.38.37.58.54A1.73,1.73,0,0,0,53.27,40.33Z"/><path class="cls-5" d="M36.24,57.3a.14.14,0,0,1,0,.07c-.23-.27-.46-.53-.71-.78l-8-8-.22-.22Z"/><path class="cls-3" d="M58.68,42.91a11.94,11.94,0,0,1-5.46-2.56.9.9,0,0,0-.1-.09.73.73,0,0,0-.09-.08l0,0a1.73,1.73,0,0,0,.21.17A11.86,11.86,0,0,0,58.68,42.91Z"/><path class="cls-3" d="M39,64.49a11.94,11.94,0,0,0-2.78-7.11l.12.12A11.71,11.71,0,0,1,39,64.49Z"/><path class="cls-3" d="M39,66.22c0-.38.05-.77.05-1.15,0-.2,0-.39,0-.58a5,5,0,0,1,0,.56A11.17,11.17,0,0,1,39,66.22Z"/><path class="cls-3" d="M38.14,69.59c.07-.19.15-.36.21-.55a3.19,3.19,0,0,1-.13.37A1.42,1.42,0,0,1,38.14,69.59Z"/><path class="cls-6" d="M35.53,73.55h0l-18-18a23.65,23.65,0,0,1-3.16-3.91A24,24,0,0,1,47.56,18.48a23.34,23.34,0,0,1,3.91,3.16l18,18,0,0A11.93,11.93,0,0,1,63,43c-.24,0-.46.08-.7.1a11.16,11.16,0,0,1-2.45,0c-.2,0-.39,0-.57-.06l-.57-.1a11.86,11.86,0,0,1-5.41-2.58,1.73,1.73,0,0,1-.21-.17c-.2-.17-.39-.36-.58-.54l-8-8A12,12,0,0,0,27.29,48.36l.22.22,8,8c.25.25.48.51.71.78h0A11.94,11.94,0,0,1,39,64.49c0,.19,0,.38,0,.58,0,.38,0,.77-.05,1.15s-.1.76-.17,1.15c0,.19-.08.37-.13.56s-.1.4-.16.6l-.17.51c-.06.19-.14.36-.21.55s-.15.36-.23.54-.17.35-.26.53-.19.34-.29.52a10.64,10.64,0,0,1-.66,1A12.57,12.57,0,0,1,35.53,73.55Z"/><path class="cls-5" d="M53.27,40.33a11.86,11.86,0,0,0,5.41,2.58,11.94,11.94,0,0,1-5.46-2.56h0l-.73-.73c.19.18.38.37.58.54A1.73,1.73,0,0,0,53.27,40.33Z"/><path class="cls-5" d="M69.45,39.62A11.93,11.93,0,0,1,63,43a11.93,11.93,0,0,0,6.43-3.33l0,0Z"/><path class="cls-5" d="M36.22,57.37c-.23-.27-.46-.53-.71-.78l-8-8-.22-.22,9,8.94A.14.14,0,0,1,36.22,57.37Z"/><path class="cls-5" d="M36.35,57.5a11.71,11.71,0,0,1,2.66,7,11.94,11.94,0,0,0-2.78-7.11Z"/><path class="cls-5" d="M39,65.05A11.17,11.17,0,0,1,39,66.22c0-.38.05-.77.05-1.15,0-.2,0-.39,0-.58A5,5,0,0,1,39,65.05Z"/><path class="cls-5" d="M38.14,69.59c.07-.19.15-.36.21-.55a3.19,3.19,0,0,1-.13.37A1.42,1.42,0,0,1,38.14,69.59Z"/></g></g></g></svg>