<svg xmlns="http://www.w3.org/2000/svg" viewBox="0 0 458.28 77.89"><defs><style>.cls-1{isolation:isolate;}.cls-2{fill:#fff;}.cls-3{fill:#009e69;}.cls-4{fill:#28634e;}.cls-5{fill:#007a8e;}.cls-6{fill:#005366;}</style></defs><title>Asset 3</title><g id="Layer_2" data-name="Layer 2"><g id="Layer_1-2" data-name="Layer 1"><g id="Layer_26" data-name="Layer 26"><g class="cls-1"><path class="cls-2" d="M133,22.36V37.47a5.64,5.64,0,0,0-2.69-.83c-2.57,0-3.85,2-3.85,5.89V60.4H112.34V39.81q0-8.16,4.46-13T128.7,22A28.53,28.53,0,0,1,133,22.36Z"/><path class="cls-2" d="M151.29,22.74V60.4H137.16V22.74Zm-7-16.81a6.9,6.9,0,0,1,5,2,6.42,6.42,0,0,1,2.1,4.78,6.36,6.36,0,0,1-2,4.83,7.77,7.77,0,0,1-10.16,0,6.39,6.39,0,0,1-2-4.83A6.42,6.42,0,0,1,139.3,8,6.88,6.88,0,0,1,144.26,5.93Z"/><path class="cls-2" d="M179.7,44.88V57.83A16.76,16.76,0,0,1,173.84,59a15.13,15.13,0,0,1-11.58-5.18,18.05,18.05,0,0,1-4.74-12.65,18.31,18.31,0,0,1,5.71-13.64,19.31,19.31,0,0,1,14-5.55,20.92,20.92,0,0,1,8.47,1.77,15.81,15.81,0,0,1,6.34,4.76q3.85,4.95,3.86,14.36V55.23q0,10.08-5.73,16.37t-14.9,6.29a23.67,23.67,0,0,1-7.06-1.39V63.65a11.46,11.46,0,0,0,5.59,1.51,7.21,7.21,0,0,0,5.89-2.51c1.38-1.67,2.08-4.07,2.08-7.2V41.29c0-4-1.6-5.93-4.8-5.93a4.85,4.85,0,0,0-3.57,1.56,5,5,0,0,0-1.53,3.61,4.83,4.83,0,0,0,1.45,3.59,4.94,4.94,0,0,0,3.61,1.44A6,6,0,0,0,179.7,44.88Z"/><path class="cls-2" d="M218.35,8.84V24.59A12.14,12.14,0,0,1,225.52,22a10.55,10.55,0,0,1,8.64,3.93q3.19,3.93,3.19,10.62V60.4H223.22V40.49a6.9,6.9,0,0,0-.51-3.24,2.13,2.13,0,0,0-2-.84c-1.59,0-2.38,1.17-2.38,3.52V60.4H204.22V8.84Z"/><path class="cls-2" d="M258.17,8.84V23.27h6.34V38.19h-6.34c0,3,.47,5.06,1.41,6.2s2.68,1.69,5.2,1.69V60.93c-.73,0-1.28,0-1.63,0a19.18,19.18,0,0,1-9-2.23,18.35,18.35,0,0,1-6.81-6Q244,47.83,244,39.78V8.84Z"/><path class="cls-2" d="M294.58,43.06l14-.53A19.94,19.94,0,0,1,302.52,56a18.58,18.58,0,0,1-13.34,5.25,19,19,0,0,1-14-5.78,19.37,19.37,0,0,1-5.73-14.17,18.44,18.44,0,0,1,5.78-13.64,19.75,19.75,0,0,1,26.33-1.21,18.9,18.9,0,0,1,6.73,11.37l-14.32.53a5.66,5.66,0,0,0-4.68-2.42,5.29,5.29,0,0,0-4,1.59,5.53,5.53,0,0,0-1.55,4,5.63,5.63,0,0,0,1.64,4.11,5.55,5.55,0,0,0,4.1,1.67Q293.08,47.26,294.58,43.06Z"/><path class="cls-2" d="M366.44,60.4H352.31V40.08a7.6,7.6,0,0,0-.49-3.25,1.86,1.86,0,0,0-1.78-.91c-1.58,0-2.38,1.4-2.38,4.2V60.4H333.53V40.08a7.23,7.23,0,0,0-.51-3.25,1.89,1.89,0,0,0-1.79-.91q-2.34,0-2.34,4.2V60.4H314.76V37.21A15,15,0,0,1,319,26.42,13.81,13.81,0,0,1,329.38,22q6.27,0,11.26,5.29Q346.19,22,351.74,22a14,14,0,0,1,11.34,5.14q3.36,4,3.36,11.67Z"/><path class="cls-2" d="M426.39,60.4H412.26V40.08a7.44,7.44,0,0,0-.49-3.25,1.85,1.85,0,0,0-1.77-.91q-2.38,0-2.38,4.2V60.4H393.49V40.08a7.23,7.23,0,0,0-.51-3.25,1.9,1.9,0,0,0-1.8-.91q-2.34,0-2.34,4.2V60.4H374.71V37.21A15,15,0,0,1,379,26.42,13.84,13.84,0,0,1,389.33,22q6.27,0,11.26,5.29Q406.14,22,411.7,22A14,14,0,0,1,423,27.12q3.36,4,3.36,11.67Z"/><path class="cls-2" d="M458.28,23.27V38.15c-2,0-3.36.37-4.1,1.12s-1.22,2.21-1.42,4.4q-1,10.92-8.46,15.41-4,2.34-11.26,2.34h-2v-15h.64c2.27,0,3.88-.47,4.85-1.41s1.53-2.6,1.68-5A35.31,35.31,0,0,1,439.33,32a11.78,11.78,0,0,1,3.16-4.65q4.15-4,11.52-4Z"/></g></g><g id="Layer_27" data-name="Layer 27"><path class="cls-3" d="M95.43,27.52l-34,33.94a12,12,0,0,1-17,0l0,0-17-17a12,12,0,0,1,17-17L53,36,78.62,10.39a12,12,0,0,1,16.28-.32h0l.52.48A12,12,0,0,1,95.43,27.52Z"/><path class="cls-4" d="M98.64,16.38a11.94,11.94,0,0,0-11.9,1.87l-.95.94L69,36H53L78.46,10.55l.16-.16a12,12,0,0,1,16.28-.32h0l.52.48A11.83,11.83,0,0,1,98.64,16.38Z"/><path class="cls-5" d="M39,61a12,12,0,0,1-20.49,8.49l-8-8A36,36,0,1,1,61.48,10.55l8,8a12,12,0,1,1-17,17l-8-8a12,12,0,0,0-17,17l8,8A12,12,0,0,1,39,61Z"/><path class="cls-6" d="M62.3,39l.73-.05h0Z"/><path class="cls-6" d="M31.69,72a11,11,0,0,0,1.64-.83A9.35,9.35,0,0,1,31.69,72Z"/><path class="cls-6" d="M69.48,35.53A11.87,11.87,0,0,1,63,38.91a11.84,11.84,0,0,0,6.43-3.33h0Z"/><path class="cls-6" d="M53.3,36.24h0l-.09-.09a.36.36,0,0,0-.09-.08h0l-.56-.56c.19.18.38.37.58.54A1.8,1.8,0,0,0,53.3,36.24Z"/><path class="cls-3" d="M39,60.4a11.91,11.91,0,0,0-2.78-7.11l.12.12A11.7,11.7,0,0,1,39,60.4Z"/><path class="cls-6" d="M35.56,69.46h0l-18-18a23.32,23.32,0,0,1-3.16-3.91A24,24,0,0,1,47.59,14.39a22.92,22.92,0,0,1,3.91,3.16l18,18h0A11.84,11.84,0,0,1,63,38.91c-.24,0-.46.08-.7.1a11.06,11.06,0,0,1-2.44,0c-.2,0-.58-.06-.58-.06l-.57-.1a11.8,11.8,0,0,1-5.42-2.54,1.81,1.81,0,0,1-.21-.18c-.2-.17-.41-.38-.6-.56l-8-8a12,12,0,0,0-17.2,16.68l.22.22,8,8c.25.25.48.51.71.78h0A11.93,11.93,0,0,1,39,60.4V61A8.85,8.85,0,0,1,39,62.13c0,.38-.1.76-.17,1.15a2.27,2.27,0,0,1-.13.56c0,.19-.1.4-.16.6l-.17.51c-.06.19-.14.36-.21.55s-.15.36-.23.54-.17.35-.26.53-.19.34-.29.52a9.6,9.6,0,0,1-.66,1A11.5,11.5,0,0,1,35.56,69.46Z"/></g></g></g></svg>