<?xml version="1.0" encoding="utf-8"?>
<!-- Generator: Adobe Illustrator 23.0.3, SVG Export Plug-In . SVG Version: 6.00 Build 0)  -->
<svg version="1.1" id="Layer_1" xmlns="http://www.w3.org/2000/svg" xmlns:xlink="http://www.w3.org/1999/xlink" x="0px" y="0px"
	 viewBox="0 0 458.7 83.8" style="enable-background:new 0 0 458.7 83.8;" xml:space="preserve">
<style type="text/css">
	.st0{enable-background:new    ;}
	.st1{fill:#005366;}
	.st2{fill:#009E69;}
	.st3{fill:#28634E;}
	.st4{fill:#007A8E;}
</style>
<title>CMMS-rightcmms-full-logo</title>
<g>
	<g>
		<g id="Layer_26">
			<g class="st0">
				<path class="st1" d="M133,26.4v15.1c-1-0.6-1.9-0.8-2.7-0.8c-2.6,0-3.9,2-3.9,5.9v17.9h-14.1V43.9c0-5.4,1.5-9.8,4.5-13
					c3-3.2,6.9-4.9,11.9-4.9C129.8,26,131.2,26.2,133,26.4z"/>
				<path class="st1" d="M151.3,26.8v37.7h-14.1V26.8H151.3z M144.2,10c1.9,0,3.6,0.7,5,2c1.4,1.3,2.1,2.9,2.1,4.8
					c0,2-0.7,3.6-2,4.8c-1.3,1.3-3,1.9-5.1,1.9c-2.1,0-3.8-0.6-5.1-1.9c-1.3-1.3-2-2.9-2-4.8c0-1.8,0.7-3.4,2.1-4.8
					C140.7,10.7,142.3,10,144.2,10z"/>
				<path class="st1" d="M179.7,49v13c-2,0.8-4,1.1-5.9,1.1c-4.6,0-8.4-1.7-11.6-5.2c-3.2-3.5-4.7-7.7-4.7-12.7
					c0-5.4,1.9-9.9,5.7-13.6c3.8-3.7,8.5-5.6,14-5.6c2.9,0,5.8,0.6,8.5,1.8c2.7,1.2,4.8,2.8,6.3,4.8c2.6,3.3,3.9,8.1,3.9,14.4v12.4
					c0,6.7-1.9,12.2-5.7,16.4c-3.8,4.2-8.8,6.3-14.9,6.3c-1.9,0-4.2-0.5-7.1-1.4V67.7c1.8,1,3.7,1.5,5.6,1.5c2.5,0,4.5-0.8,5.9-2.5
					c1.4-1.7,2.1-4.1,2.1-7.2V45.4c0-4-1.6-5.9-4.8-5.9c-1.4,0-2.6,0.5-3.6,1.6c-1,1-1.5,2.2-1.5,3.6c0,1.4,0.5,2.6,1.5,3.6
					c1,1,2.2,1.4,3.6,1.4C177.9,49.6,178.8,49.4,179.7,49z"/>
				<path class="st1" d="M218.3,12.9v15.8c2.4-1.7,4.8-2.6,7.2-2.6c3.6,0,6.5,1.3,8.6,3.9c2.1,2.6,3.2,6.2,3.2,10.6v23.9h-14.1V44.6
					c0-1.6-0.2-2.7-0.5-3.2c-0.3-0.6-1-0.8-2-0.8c-1.6,0-2.4,1.2-2.4,3.5v20.5h-14.1V12.9H218.3z"/>
				<path class="st1" d="M258.1,12.9v14.4h6.3v14.9h-6.3c0,3,0.5,5.1,1.4,6.2c0.9,1.1,2.7,1.7,5.2,1.7V65c-0.7,0-1.3,0-1.6,0
					c-3.2,0-6.2-0.7-9-2.2c-2.8-1.5-5.1-3.5-6.8-6c-2.2-3.2-3.2-7.6-3.2-12.9V12.9H258.1z"/>
				<path class="st1" d="M294.6,47.2l14-0.5c-0.4,5.4-2.4,9.9-6.1,13.4c-3.7,3.5-8.1,5.3-13.3,5.3c-5.5,0-10.2-1.9-14-5.8
					c-3.8-3.9-5.7-8.6-5.7-14.2c0-5.3,1.9-9.9,5.8-13.6c3.9-3.8,8.5-5.7,13.9-5.7c4.7,0,8.9,1.5,12.5,4.5s5.8,6.8,6.7,11.4
					l-14.3,0.5c-1.2-1.6-2.8-2.4-4.7-2.4c-1.6,0-2.9,0.5-4,1.6c-1,1.1-1.5,2.4-1.5,4c0,1.6,0.5,3,1.6,4.1c1.1,1.1,2.5,1.7,4.1,1.7
					C291.8,51.3,293.5,49.9,294.6,47.2z"/>
				<path class="st1" d="M366.4,64.5h-14.1V44.2c0-1.6-0.2-2.6-0.5-3.2c-0.3-0.6-0.9-0.9-1.8-0.9c-1.6,0-2.4,1.4-2.4,4.2v20.3h-14.1
					V44.2c0-1.6-0.2-2.6-0.5-3.2s-0.9-0.9-1.8-0.9c-1.6,0-2.3,1.4-2.3,4.2v20.3h-14.1V41.3c0-4.2,1.4-7.8,4.3-10.8
					c2.8-3,6.3-4.4,10.4-4.4c4.2,0,7.9,1.8,11.3,5.3c3.7-3.5,7.4-5.3,11.1-5.3c4.7,0,8.5,1.7,11.3,5.1c2.2,2.7,3.4,6.6,3.4,11.7
					V64.5z"/>
				<path class="st1" d="M426.4,64.5h-14.1V44.2c0-1.6-0.2-2.6-0.5-3.2S410.8,40,410,40c-1.6,0-2.4,1.4-2.4,4.2v20.3h-14.1V44.2
					c0-1.6-0.2-2.6-0.5-3.2c-0.3-0.6-0.9-0.9-1.8-0.9c-1.6,0-2.3,1.4-2.3,4.2v20.3h-14.1V41.3c0-4.2,1.4-7.8,4.3-10.8
					c2.8-3,6.3-4.4,10.4-4.4c4.2,0,7.9,1.8,11.3,5.3c3.7-3.5,7.4-5.3,11.1-5.3c4.7,0,8.5,1.7,11.3,5.1c2.2,2.7,3.4,6.6,3.4,11.7
					V64.5z"/>
				<path class="st1" d="M458.2,27.4v14.9c-2,0-3.4,0.4-4.1,1.1s-1.2,2.2-1.4,4.4c-0.7,7.3-3.5,12.4-8.5,15.4
					c-2.6,1.6-6.4,2.3-11.3,2.3h-2v-15h0.6c2.3,0,3.9-0.5,4.9-1.4c1-0.9,1.5-2.6,1.7-5c0.2-3.9,0.6-6.6,1.1-8.1
					c0.5-1.6,1.6-3.1,3.2-4.6c2.8-2.7,6.6-4,11.5-4H458.2z"/>
			</g>
		</g>
		<g id="Layer_27">
			<path class="st2" d="M95.4,31.6l-34,33.9c-4.7,4.7-12.3,4.7-17,0c0,0,0,0,0,0l-17-17c-4.7-4.7-4.7-12.3,0-17s12.3-4.7,17,0
				l8.5,8.5l25.6-25.6c4.5-4.3,11.6-4.5,16.3-0.3l0,0l0.5,0.5C100.1,19.3,100.1,26.9,95.4,31.6z"/>
			<path class="st3" d="M98.6,20.5c-1.4-0.5-2.9-0.8-4.3-0.8c-2.8,0-5.4,0.9-7.6,2.7l-0.9,0.9L68.9,40.1H53l25.4-25.5l0.2-0.2
				c4.5-4.3,11.6-4.5,16.3-0.3l0,0l0.5,0.5C97,16.2,98.1,18.3,98.6,20.5z"/>
			<path class="st4" d="M39,65.1c0,6.6-5.4,12-12,12c-3.2,0-6.2-1.3-8.5-3.5l-8-8c-14.1-14.1-14.1-36.9,0-50.9s36.9-14.1,50.9,0l8,8
				c4.7,4.7,4.7,12.3,0,17s-12.3,4.7-17,0l-8-8c-4.7-4.7-12.3-4.7-17,0s-4.7,12.3,0,17l8,8C37.7,58.9,39,61.9,39,65.1z"/>
			<path class="st1" d="M62.3,43l0.7,0l0,0L62.3,43z"/>
			<path class="st1" d="M31.7,76.1c0.6-0.2,1.1-0.5,1.6-0.8C32.8,75.6,32.2,75.9,31.7,76.1z"/>
			<path class="st1" d="M69.4,39.6c-1.7,1.8-4,3-6.4,3.4C65.4,42.6,67.7,41.4,69.4,39.6L69.4,39.6L69.4,39.6z"/>
			<path class="st1" d="M53.3,40.3L53.3,40.3L53.3,40.3l-0.1-0.1c0,0-0.1-0.1-0.1-0.1l0,0l-0.6-0.6c0.2,0.2,0.4,0.4,0.6,0.5
				C53.1,40.2,53.2,40.3,53.3,40.3z"/>
			<path class="st2" d="M39,64.5c-0.1-2.6-1.1-5.1-2.8-7.1l0.1,0.1C38,59.5,38.9,61.9,39,64.5z"/>
			<path class="st1" d="M35.5,73.6L35.5,73.6l-18-18c-1.2-1.2-2.2-2.5-3.2-3.9c-7.2-11.1-4-26,7.2-33.2c7.9-5.1,18.1-5.1,26,0
				c1.4,0.9,2.7,2,3.9,3.2l18,18l0,0c-1.8,1.8-4,2.9-6.5,3.4c-0.2,0-0.5,0.1-0.7,0.1c-0.8,0.1-1.6,0.1-2.4,0c-0.2,0-0.6-0.1-0.6-0.1
				L58.7,43c-2-0.4-3.9-1.2-5.4-2.5c-0.1-0.1-0.1-0.1-0.2-0.2c-0.2-0.2-0.4-0.4-0.6-0.6l-8-8C39.8,27,32.2,27,27.5,31.7
				c-4.5,4.6-4.6,11.9-0.2,16.6l0.2,0.2l8,8c0.3,0.3,0.5,0.5,0.7,0.8l0,0c1.7,2,2.7,4.5,2.8,7.1c0,0.2,0,0.4,0,0.6
				c0,0.4,0,0.8,0,1.2s-0.1,0.8-0.2,1.2c0,0.2-0.1,0.4-0.1,0.6s-0.1,0.4-0.2,0.6L38.3,69c-0.1,0.2-0.1,0.4-0.2,0.6S38,70,37.9,70.1
				s-0.2,0.3-0.3,0.5s-0.2,0.3-0.3,0.5c-0.2,0.3-0.4,0.7-0.7,1C36.3,72.7,35.9,73.1,35.5,73.6z"/>
		</g>
	</g>
</g>
<title>CMMS-rightcmms-full-logo</title>
</svg>
