<svg xmlns="http://www.w3.org/2000/svg" viewBox="0 0 98.91 72.97"><defs><style>.cls-1{isolation:isolate;}.cls-2,.cls-3{fill:#009e69;}.cls-3{opacity:0.23;}.cls-3,.cls-5{mix-blend-mode:multiply;}.cls-4,.cls-5{fill:#005366;}.cls-5{opacity:0.2;}</style></defs><title>CMMS-rightcmms-icon</title><g class="cls-1"><g id="Layer_2" data-name="Layer 2"><g id="Layer_27" data-name="Layer 27"><path class="cls-2" d="M95.4,27.51,61.45,61.45a12,12,0,0,1-17,0l-17-17a12,12,0,0,1,17-17L53,36,78.59,10.38a12,12,0,0,1,16.28-.32h0l.52.48A12,12,0,0,1,95.4,27.51Z"/><path class="cls-3" d="M98.61,16.37a12,12,0,0,0-4.35-.82,11.84,11.84,0,0,0-7.55,2.69l-.95.94L68.93,36H53L78.43,10.55l.16-.17a12,12,0,0,1,16.28-.32h0l.52.48A12,12,0,0,1,98.61,16.37Z"/><path class="cls-4" d="M39,61a12,12,0,0,1-20.49,8.49l-8-8A36,36,0,0,1,61.45,10.55l8,8a12,12,0,1,1-17,17l-8-8a12,12,0,0,0-17,17l8,8A12,12,0,0,1,39,61Z"/><path class="cls-4" d="M62.27,39c.24,0,.47-.06.7-.1h0Z"/><path class="cls-4" d="M31.66,72a13.35,13.35,0,0,0,1.64-.84A10.14,10.14,0,0,1,31.66,72Z"/><path class="cls-4" d="M69.45,35.52A11.87,11.87,0,0,1,63,38.85a11.93,11.93,0,0,0,6.43-3.33l0,0Z"/><path class="cls-4" d="M53.27,36.23l-.05,0h0l-.09-.09L53,36.09h0l-.56-.56c.19.18.38.37.58.54A1.73,1.73,0,0,0,53.27,36.23Z"/><path class="cls-4" d="M36.24,53.21a.14.14,0,0,1,0,.06c-.23-.27-.46-.53-.71-.78l-8-8-.22-.23Z"/><path class="cls-2" d="M58.68,38.82a12,12,0,0,1-5.46-2.57.9.9,0,0,0-.1-.09L53,36.09l0,0a1.73,1.73,0,0,0,.21.17A12,12,0,0,0,58.68,38.82Z"/><path class="cls-2" d="M39,60.39a11.94,11.94,0,0,0-2.78-7.11l.12.12A11.74,11.74,0,0,1,39,60.39Z"/><path class="cls-2" d="M39,62.12c0-.38.05-.77.05-1.15,0-.2,0-.39,0-.58A5.17,5.17,0,0,1,39,61,11.12,11.12,0,0,1,39,62.12Z"/><path class="cls-2" d="M38.14,65.49c.07-.19.15-.36.21-.55a3.19,3.19,0,0,1-.13.37A1.42,1.42,0,0,1,38.14,65.49Z"/><path class="cls-5" d="M35.53,69.45h0l-18-18a23.24,23.24,0,0,1-3.16-3.91A24,24,0,0,1,47.56,14.38a23.34,23.34,0,0,1,3.91,3.16l18,18,0,0A11.93,11.93,0,0,1,63,38.85c-.24,0-.46.08-.7.1a11.16,11.16,0,0,1-2.45,0,5,5,0,0,1-.57-.06l-.57-.09a12,12,0,0,1-5.41-2.59,1.73,1.73,0,0,1-.21-.17c-.2-.17-.39-.36-.58-.54l-8-8A12,12,0,0,0,27.29,44.26l.22.23,8,8c.25.25.48.51.71.78h0A11.94,11.94,0,0,1,39,60.39c0,.19,0,.38,0,.58,0,.38,0,.77-.05,1.15s-.1.77-.17,1.15c0,.19-.08.37-.13.56s-.1.4-.16.6-.11.34-.17.51-.14.36-.21.55-.15.36-.23.54-.17.36-.26.53l-.29.52c-.2.34-.42.67-.66,1A12.48,12.48,0,0,1,35.53,69.45Z"/><path class="cls-4" d="M53.27,36.23a12,12,0,0,0,5.41,2.59,12,12,0,0,1-5.46-2.57h0l-.73-.73c.19.18.38.37.58.54A1.73,1.73,0,0,0,53.27,36.23Z"/><path class="cls-4" d="M69.45,35.52A11.87,11.87,0,0,1,63,38.85a11.93,11.93,0,0,0,6.43-3.33l0,0Z"/><path class="cls-4" d="M36.22,53.27c-.23-.27-.46-.53-.71-.78l-8-8-.22-.23,9,9A.14.14,0,0,1,36.22,53.27Z"/><path class="cls-4" d="M36.35,53.4a11.74,11.74,0,0,1,2.66,7,11.94,11.94,0,0,0-2.78-7.11Z"/><path class="cls-4" d="M39,61A11.12,11.12,0,0,1,39,62.12c0-.38.05-.77.05-1.15,0-.2,0-.39,0-.58A5.17,5.17,0,0,1,39,61Z"/><path class="cls-4" d="M38.14,65.49c.07-.19.15-.36.21-.55a3.19,3.19,0,0,1-.13.37A1.42,1.42,0,0,1,38.14,65.49Z"/></g></g></g></svg>