<?xml version="1.0" encoding="utf-8"?>
<!-- Generator: Adobe Illustrator 23.0.3, SVG Export Plug-In . SVG Version: 6.00 Build 0)  -->
<svg version="1.1" id="Layer_1" xmlns="http://www.w3.org/2000/svg" xmlns:xlink="http://www.w3.org/1999/xlink" x="0px" y="0px"
	 viewBox="0 0 344.6 246.2" style="enable-background:new 0 0 344.6 246.2;" xml:space="preserve">
<style type="text/css">
	.st0{opacity:0.31;}
	.st1{opacity:0.5;}
	.st2{fill:url(#SVGID_1_);}
	.st3{opacity:0.8;fill:#5D9DC5;enable-background:new    ;}
	.st4{fill:url(#SVGID_2_);}
	.st5{fill:url(#SVGID_3_);}
	.st6{fill:url(#SVGID_4_);}
	.st7{fill:url(#SVGID_5_);}
	.st8{fill:url(#SVGID_6_);}
	.st9{fill:url(#SVGID_7_);}
	.st10{fill:url(#SVGID_8_);}
	.st11{fill:url(#SVGID_9_);}
	.st12{fill:url(#SVGID_10_);}
	.st13{fill:url(#SVGID_11_);}
	.st14{fill:url(#SVGID_12_);}
	.st15{fill:url(#SVGID_13_);}
	.st16{fill:url(#SVGID_14_);}
	.st17{fill:url(#SVGID_15_);}
	.st18{fill:#FFFFFF;}
	.st19{fill:url(#SVGID_16_);}
	.st20{fill:url(#SVGID_17_);}
	.st21{fill:url(#SVGID_18_);}
	.st22{fill:url(#SVGID_19_);}
	.st23{fill:url(#SVGID_20_);}
	.st24{fill:url(#SVGID_21_);}
	.st25{fill:url(#SVGID_22_);}
	.st26{fill:url(#SVGID_23_);}
	.st27{fill:url(#SVGID_24_);}
	.st28{fill:url(#SVGID_25_);}
	.st29{fill:url(#SVGID_26_);}
	.st30{fill:url(#SVGID_27_);}
	.st31{fill:url(#SVGID_28_);}
	.st32{fill:url(#SVGID_29_);}
	.st33{fill:url(#SVGID_30_);}
	.st34{fill:url(#SVGID_31_);}
	.st35{fill:url(#SVGID_32_);}
	.st36{fill:url(#SVGID_33_);}
	.st37{fill:url(#SVGID_34_);}
	.st38{fill:url(#SVGID_35_);}
	.st39{fill:url(#SVGID_36_);}
	.st40{fill:#9DC44D;}
	.st41{fill:url(#SVGID_37_);}
	.st42{fill:url(#SVGID_38_);}
	.st43{fill:url(#SVGID_39_);}
	.st44{fill:url(#SVGID_40_);}
	.st45{fill:#E5E5E6;}
	.st46{fill:url(#SVGID_41_);}
	.st47{fill:url(#SVGID_42_);}
	.st48{fill:url(#SVGID_43_);}
	.st49{fill:url(#SVGID_44_);}
	.st50{fill:url(#SVGID_45_);}
	.st51{fill:url(#SVGID_46_);}
	.st52{fill:url(#SVGID_47_);}
	.st53{fill:url(#SVGID_48_);}
	.st54{fill:url(#SVGID_49_);}
	.st55{fill:url(#SVGID_50_);}
	.st56{fill:url(#SVGID_51_);}
	.st57{fill:url(#SVGID_52_);}
	.st58{fill:url(#SVGID_53_);}
	.st59{fill:url(#SVGID_54_);}
	.st60{fill:url(#SVGID_55_);}
	.st61{fill:#D6AC63;}
	.st62{fill:#547FB9;}
	.st63{fill:url(#SVGID_56_);}
	.st64{fill:url(#SVGID_57_);}
	.st65{fill:url(#SVGID_58_);}
	.st66{fill:url(#SVGID_59_);}
	.st67{fill:url(#SVGID_60_);}
	.st68{fill:url(#SVGID_61_);}
	.st69{fill:url(#SVGID_62_);}
	.st70{fill:url(#SVGID_63_);}
	.st71{fill:url(#SVGID_64_);}
	.st72{fill:url(#SVGID_65_);}
	.st73{fill:url(#SVGID_66_);}
	.st74{fill:url(#SVGID_67_);}
	.st75{fill:url(#SVGID_68_);}
	.st76{fill:url(#SVGID_69_);}
	.st77{fill:url(#SVGID_70_);}
	.st78{fill:url(#SVGID_71_);}
	.st79{fill:url(#SVGID_72_);}
	.st80{fill:url(#SVGID_73_);}
	.st81{fill:url(#SVGID_74_);}
	.st82{fill:url(#SVGID_75_);}
	.st83{fill:url(#SVGID_76_);}
	.st84{fill:url(#SVGID_77_);}
	.st85{fill:url(#SVGID_78_);}
	.st86{fill:url(#SVGID_79_);}
	.st87{fill:url(#SVGID_80_);}
	.st88{fill:url(#SVGID_81_);}
	.st89{fill:url(#SVGID_82_);}
	.st90{fill:url(#SVGID_83_);}
	.st91{fill:url(#SVGID_84_);}
	.st92{fill:url(#SVGID_85_);}
	.st93{fill:url(#SVGID_86_);}
	.st94{fill:url(#SVGID_87_);}
	.st95{fill:url(#SVGID_88_);}
</style>
<title>CMMS-The-right-cmms-promise-maintenance-image</title>
<g>
	<g id="OBJECTS">
		<g class="st0">
			<g class="st1">
				
					<linearGradient id="SVGID_1_" gradientUnits="userSpaceOnUse" x1="212.0304" y1="154.79" x2="212.0304" y2="238" gradientTransform="matrix(1 0 0 -1 0 238)">
					<stop  offset="0" style="stop-color:#5689AC"/>
					<stop  offset="1" style="stop-color:#72BFD0"/>
				</linearGradient>
				<path class="st2" d="M179.5,49.2c0.4,1.9,1,3.7,1.8,5.5l-0.2,0.3l-5.9,7.6c1.6,2.8,3.4,5.3,5.6,7.7l9.1-3.2l0.3-0.1
					c1.5,1.3,3,2.4,4.7,3.4v0.3l-0.3,9.7c2.9,1.3,5.9,2.3,9,2.9l5.5-8l0.2-0.3c1,0.1,1.9,0.1,2.9,0.1s1.9-0.1,2.9-0.1l0.2,0.3l5.5,8
					c3.1-0.6,6.1-1.6,9-2.9l-0.3-9.7v-0.3c1.7-1,3.2-2.1,4.7-3.4l0.3,0.1l9.1,3.2c2.1-2.3,4-4.9,5.6-7.7l-5.9-7.6l-0.2-0.3
					c0.7-1.8,1.3-3.6,1.8-5.5l0.3-0.1l9.3-2.7c0.4-3.1,0.4-6.3,0-9.5l-9.3-2.7l-0.3-0.1c-0.4-1.9-1-3.7-1.8-5.5l0.2-0.3l5.9-7.6
					c-1.6-2.7-3.4-5.3-5.5-7.6l-9.1,3.2l-0.3,0.1c-1.5-1.3-3-2.4-4.7-3.4v-0.4l0.3-9.7c-2.9-1.3-5.9-2.3-9-2.9l-5.5,8l-0.2,0.3
					c-1-0.1-1.9-0.1-2.9-0.1s-1.9,0.1-2.9,0.1L209,8l-5.5-8c-3.1,0.6-6.1,1.6-9,2.9l0.3,9.7v0.3c-1.6,1-3.2,2.1-4.7,3.4l-0.3-0.1
					l-9.1-3.2c-2.1,2.3-4,4.9-5.6,7.7l5.9,7.6l0.2,0.3c-0.8,1.8-1.4,3.6-1.8,5.5l-0.3,0.1l-9.3,2.7c-0.4,3.1-0.4,6.3,0,9.5l9.3,2.7
					L179.5,49.2z M194.7,41.6c0-9.6,7.8-17.3,17.4-17.3c9.6,0,17.3,7.8,17.3,17.4c0,9.6-7.8,17.3-17.3,17.3
					C202.5,59,194.7,51.2,194.7,41.6C194.7,41.6,194.7,41.6,194.7,41.6L194.7,41.6z"/>
			</g>
			<path class="st3" d="M233.5,124.5l-11.8,6.7c0.8,3.3,1.8,6.6,3.1,9.7l13.5-1.5c0.8,1.5,1.6,3,2.5,4.4l-8.1,10.9
				c2.1,2.7,4.3,5.2,6.8,7.6l11.7-6.9c1.3,1.1,2.7,2.1,4.1,3l-2.9,13.3c3,1.6,6.1,3,9.3,4.1l7.9-11c1.6,0.4,3.3,0.8,5,1.1l2.7,13.3
				c1.7,0.1,3.4,0.2,5.1,0.2s3.4-0.1,5.1-0.2l2.7-13.3c1.7-0.3,3.3-0.6,5-1.1l7.9,11c3.2-1.1,6.3-2.5,9.3-4.1l-2.9-13.3
				c1.4-0.9,2.8-1.9,4.1-3l11.7,6.9c2.5-2.3,4.8-4.9,6.8-7.6l-8.1-10.9c0.9-1.4,1.8-2.9,2.5-4.4l13.5,1.5c1.3-3.1,2.4-6.4,3.1-9.7
				l-11.8-6.7c0.3-1.7,0.4-3.3,0.5-5l12.9-4.1c-0.1-3.4-0.4-6.8-1-10.1l-13.5-1.3c-0.4-1.6-1-3.2-1.6-4.8l10.2-9
				c-1.5-3.1-3.2-6-5.1-8.8l-12.9,4.3c-1.1-1.3-2.2-2.6-3.4-3.8l5.6-12.4c-2.6-2.2-5.3-4.2-8.2-6l-10,9.2c-1.5-0.8-3-1.5-4.6-2.1
				l0.1-13.6c-3.3-1-6.6-1.7-10-2.1l-5.4,12.4c-0.8,0-1.7-0.1-2.5-0.1s-1.7,0-2.5,0.1L274.4,55c-3.4,0.4-6.7,1.1-10,2.1l0.1,13.6
				c-1.6,0.6-3.1,1.3-4.6,2.1l-10-9.2c-2.9,1.8-5.7,3.8-8.2,6l5.6,12.3c-1.2,1.2-2.3,2.4-3.4,3.8l-12.9-4.3
				c-1.9,2.8-3.7,5.7-5.1,8.8l10.2,9c-0.6,1.6-1.1,3.2-1.6,4.8l-13.5,1.3c-0.6,3.3-1,6.7-1,10.1l12.9,4.1
				C233.1,121.1,233.2,122.8,233.5,124.5z M257.2,116.8c0-13.9,11.3-25.1,25.1-25.1c13.9,0,25.1,11.3,25.1,25.1
				s-11.3,25.1-25.1,25.1l0,0C268.5,141.9,257.2,130.7,257.2,116.8L257.2,116.8L257.2,116.8z"/>
		</g>
		
			<linearGradient id="SVGID_2_" gradientUnits="userSpaceOnUse" x1="176.8854" y1="49.75" x2="176.8854" y2="171.12" gradientTransform="matrix(1 0 0 -1 0 238)">
			<stop  offset="0" style="stop-color:#7FA0C1"/>
			<stop  offset="1" style="stop-color:#C6E3F0"/>
		</linearGradient>
		<path class="st4" d="M73.3,66.9h207.1c1.8,0,3.2,1.4,3.2,3.2V185c0,1.8-1.4,3.2-3.2,3.2H73.3c-1.8,0-3.2-1.4-3.2-3.2V70.1
			C70.1,68.3,71.6,66.9,73.3,66.9z"/>
		
			<linearGradient id="SVGID_3_" gradientUnits="userSpaceOnUse" x1="176.8904" y1="52.8" x2="176.8904" y2="29.67" gradientTransform="matrix(1 0 0 -1 0 238)">
			<stop  offset="0" style="stop-color:#7FA0C1"/>
			<stop  offset="1" style="stop-color:#C6E3F0"/>
		</linearGradient>
		<polygon class="st5" points="197.8,188.3 156,188.3 150.5,209 203.2,209 		"/>
		
			<linearGradient id="SVGID_4_" gradientUnits="userSpaceOnUse" x1="176.9045" y1="8.93" x2="176.9045" y2="36.95" gradientTransform="matrix(1 0 0 -1 0 238)">
			<stop  offset="0" style="stop-color:#7FA0C1"/>
			<stop  offset="1" style="stop-color:#C6E3F0"/>
		</linearGradient>
		<path class="st6" d="M226.6,219.7h-99.4c-0.5,0-0.9-0.4-0.9-0.9c0-0.3,0.1-0.5,0.4-0.7l4.5-3.3c5.3-3.8,11.6-5.9,18.1-5.9h55.2
			c6.5,0,12.8,2.1,18.1,5.9l4.5,3.3c0.4,0.3,0.5,0.8,0.2,1.2C227.1,219.6,226.9,219.7,226.6,219.7z"/>
		
			<linearGradient id="SVGID_5_" gradientUnits="userSpaceOnUse" x1="176.8904" y1="37.73" x2="176.8904" y2="162.47" gradientTransform="matrix(1 0 0 -1 0 238)">
			<stop  offset="0" style="stop-color:#394967"/>
			<stop  offset="1" style="stop-color:#232D4A"/>
		</linearGradient>
		<rect x="75.9" y="71.7" class="st7" width="202" height="109.5"/>
		
			<linearGradient id="SVGID_6_" gradientUnits="userSpaceOnUse" x1="102.0204" y1="70.42" x2="102.0204" y2="140.22" gradientTransform="matrix(1 0 0 -1 0 238)">
			<stop  offset="0" style="stop-color:#C6D4E5"/>
			<stop  offset="1" style="stop-color:#FFFFFF"/>
		</linearGradient>
		<path class="st8" d="M110.6,90H93.5c-1.8,0-3.3-1.5-3.3-3.3c0,0,0,0,0,0l0,0c0-1.8,1.5-3.3,3.3-3.3l0,0h17.1
			c1.8,0,3.3,1.5,3.3,3.3l0,0l0,0C113.9,88.5,112.4,90,110.6,90z"/>
		
			<linearGradient id="SVGID_7_" gradientUnits="userSpaceOnUse" x1="189.5904" y1="70.42" x2="189.5904" y2="140.22" gradientTransform="matrix(1 0 0 -1 0 238)">
			<stop  offset="0" style="stop-color:#C6D4E5"/>
			<stop  offset="1" style="stop-color:#FFFFFF"/>
		</linearGradient>
		<path class="st9" d="M123.4,90h132.3c1.8,0,3.3-1.4,3.3-3.2c0,0,0,0,0,0l0,0c0-1.8-1.5-3.3-3.3-3.3H123.4c-1.8,0-3.3,1.5-3.3,3.3
			c0,0,0,0,0,0l0,0C120.1,88.5,121.6,90,123.4,90z"/>
		
			<linearGradient id="SVGID_8_" gradientUnits="userSpaceOnUse" x1="174.6654" y1="134.43" x2="174.6654" y2="122.26" gradientTransform="matrix(1 0 0 -1 0 238)">
			<stop  offset="0" style="stop-color:#F0CD30"/>
			<stop  offset="1" style="stop-color:#E8AB28"/>
		</linearGradient>
		<rect x="90.2" y="101.7" class="st10" width="169" height="5.2"/>
		
			<linearGradient id="SVGID_9_" gradientUnits="userSpaceOnUse" x1="174.6654" y1="134.43" x2="174.6654" y2="122.26" gradientTransform="matrix(1 0 0 -1 0 238)">
			<stop  offset="0" style="stop-color:#F0CD30"/>
			<stop  offset="1" style="stop-color:#E8AB28"/>
		</linearGradient>
		<rect x="90.2" y="111.4" class="st11" width="169" height="5.2"/>
		
			<linearGradient id="SVGID_10_" gradientUnits="userSpaceOnUse" x1="115.1704" y1="70.19" x2="115.1704" y2="147.69" gradientTransform="matrix(1 0 0 -1 0 238)">
			<stop  offset="0" style="stop-color:#C6D4E5"/>
			<stop  offset="1" style="stop-color:#FFFFFF"/>
		</linearGradient>
		<rect x="90.2" y="123.4" class="st12" width="50" height="42.2"/>
		
			<linearGradient id="SVGID_11_" gradientUnits="userSpaceOnUse" x1="203.4054" y1="29.84" x2="203.4054" y2="105.52" gradientTransform="matrix(1 0 0 -1 0 238)">
			<stop  offset="0" style="stop-color:#5689AC"/>
			<stop  offset="1" style="stop-color:#72BFD0"/>
		</linearGradient>
		<rect x="147.6" y="123.4" class="st13" width="111.5" height="42.2"/>
		
			<linearGradient id="SVGID_12_" gradientUnits="userSpaceOnUse" x1="155.8604" y1="207.8924" x2="186.5805" y2="207.8924" gradientTransform="matrix(1 0 0 -1 0 238)">
			<stop  offset="0" style="stop-color:#F0CD30"/>
			<stop  offset="1" style="stop-color:#E8AB28"/>
		</linearGradient>
		<path class="st14" d="M186.6,27.6c0-8.5-6.9-15.4-15.3-15.4c-8.5,0-15.4,6.9-15.4,15.3c0,3.6,1.2,7,3.5,9.8
			c2.5,3,3.8,6.8,3.8,10.6h16.2c0-3.9,1.4-7.7,3.9-10.7C185.4,34.5,186.6,31.1,186.6,27.6z"/>
		
			<linearGradient id="SVGID_13_" gradientUnits="userSpaceOnUse" x1="179.8304" y1="187.555" x2="159.4504" y2="187.555" gradientTransform="matrix(1 0 0 -1 0 238)">
			<stop  offset="0" style="stop-color:#394967"/>
			<stop  offset="1" style="stop-color:#232D4A"/>
		</linearGradient>
		<path class="st15" d="M178.9,48h-15.3c-1.4,0-2.4,1.1-2.4,2.5l0,0c0,1.3,1.1,2.4,2.4,2.4h15.3c1.3,0,2.4-1.1,2.4-2.4l0,0
			C181.3,49.1,180.2,48,178.9,48z"/>
		
			<linearGradient id="SVGID_14_" gradientUnits="userSpaceOnUse" x1="179.8304" y1="181.745" x2="159.4504" y2="181.745" gradientTransform="matrix(1 0 0 -1 0 238)">
			<stop  offset="0" style="stop-color:#394967"/>
			<stop  offset="1" style="stop-color:#232D4A"/>
		</linearGradient>
		<path class="st16" d="M178.9,53.8h-15.3c-1.4,0-2.4,1.1-2.4,2.5l0,0c0,1.3,1.1,2.4,2.4,2.4h15.3c1.3,0,2.4-1.1,2.4-2.4l0,0
			C181.3,54.9,180.2,53.8,178.9,53.8z"/>
		
			<linearGradient id="SVGID_15_" gradientUnits="userSpaceOnUse" x1="179.7904" y1="174.0704" x2="159.5104" y2="174.0704" gradientTransform="matrix(1 0 0 -1 0 238)">
			<stop  offset="0" style="stop-color:#394967"/>
			<stop  offset="1" style="stop-color:#232D4A"/>
		</linearGradient>
		<path class="st17" d="M178.4,60c0.4,0,0.7,0.3,0.7,0.7c0,0,0,0,0,0.1c-0.5,4.3-4.4,7.5-8.7,7c-3.7-0.4-6.6-3.3-7-7
			c0-0.4,0.2-0.8,0.6-0.8c0,0,0,0,0,0H178.4z"/>
		<path class="st18" d="M176.3,28.3L176.3,28.3c-1.8,0-3.2,1.4-3.3,3.1c0,0,0,0,0,0v2.4h-3.7v-2.4c0-1.7-1.4-3.1-3.1-3.1h-0.1
			c-1.7,0-3.1,1.4-3.1,3.1c0,1.7,1.4,3.1,3.1,3.1h2.5V48h0.7V34.6h3.7V48h0.7V34.6h2.5c1.7,0,3.1-1.4,3.1-3.1
			C179.4,29.7,178,28.3,176.3,28.3L176.3,28.3z M168.7,33.9h-2.5c-1.3,0-2.4-1.1-2.4-2.4s1.1-2.4,2.4-2.4h0.1c1.3,0,2.4,1.1,2.4,2.4
			V33.9z M176.3,33.9h-2.5v-2.4c0-1.3,1.1-2.4,2.4-2.4h0.1c1.3,0,2.4,1.1,2.4,2.4S177.7,33.9,176.3,33.9L176.3,33.9z"/>
		
			<linearGradient id="SVGID_16_" gradientUnits="userSpaceOnUse" x1="294.5154" y1="123.29" x2="294.5154" y2="116.12" gradientTransform="matrix(1 0 0 -1 0 238)">
			<stop  offset="0" style="stop-color:#394967"/>
			<stop  offset="1" style="stop-color:#232D4A"/>
		</linearGradient>
		<rect x="292.4" y="114" class="st19" width="4.3" height="4.6"/>
		
			<linearGradient id="SVGID_17_" gradientUnits="userSpaceOnUse" x1="294.5154" y1="124.03" x2="294.5154" y2="128.65" gradientTransform="matrix(1 0 0 -1 0 238)">
			<stop  offset="0" style="stop-color:#5689AC"/>
			<stop  offset="1" style="stop-color:#72BFD0"/>
		</linearGradient>
		<rect x="290.9" y="109.3" class="st20" width="7.2" height="4.6"/>
		
			<linearGradient id="SVGID_18_" gradientUnits="userSpaceOnUse" x1="306.5912" y1="123.29" x2="306.5912" y2="116.12" gradientTransform="matrix(1 0 0 -1 4.566244e-03 238.0111)">
			<stop  offset="0" style="stop-color:#394967"/>
			<stop  offset="1" style="stop-color:#232D4A"/>
		</linearGradient>
		<polygon class="st21" points="306.3,117.2 309.7,119.8 306.9,123.5 303.5,120.8 		"/>
		
			<linearGradient id="SVGID_19_" gradientUnits="userSpaceOnUse" x1="281.6085" y1="123.29" x2="281.6085" y2="116.12" gradientTransform="matrix(1 0 0 -1 -9.012620e-03 238.0042)">
			<stop  offset="0" style="stop-color:#394967"/>
			<stop  offset="1" style="stop-color:#232D4A"/>
		</linearGradient>
		<polygon class="st22" points="278.5,120.7 281.7,117.9 284.7,121.4 281.5,124.2 		"/>
		
			<linearGradient id="SVGID_20_" gradientUnits="userSpaceOnUse" x1="294.5204" y1="83.14" x2="294.5204" y2="120.82" gradientTransform="matrix(1 0 0 -1 0 238)">
			<stop  offset="0" style="stop-color:#5689AC"/>
			<stop  offset="1" style="stop-color:#72BFD0"/>
		</linearGradient>
		<circle class="st23" cx="294.5" cy="136" r="18.8"/>
		
			<ellipse transform="matrix(0.7071 -0.7071 0.7071 0.7071 -9.9188 248.0983)" class="st18" cx="294.5" cy="136" rx="15.6" ry="15.6"/>
		
			<linearGradient id="SVGID_21_" gradientUnits="userSpaceOnUse" x1="294.5204" y1="115.66" x2="294.5204" y2="97.89" gradientTransform="matrix(1 0 0 -1 0 238)">
			<stop  offset="0" style="stop-color:#394967"/>
			<stop  offset="1" style="stop-color:#232D4A"/>
		</linearGradient>
		<path class="st24" d="M294.5,125.5c-0.4,0-0.7-0.3-0.7-0.7c0,0,0,0,0,0v-2.9c0-0.4,0.3-0.7,0.7-0.7c0.4,0,0.7,0.3,0.7,0.7v2.9
			C295.2,125.2,294.9,125.5,294.5,125.5z"/>
		
			<linearGradient id="SVGID_22_" gradientUnits="userSpaceOnUse" x1="307.1604" y1="115.66" x2="307.1604" y2="97.89" gradientTransform="matrix(1 0 0 -1 0 238)">
			<stop  offset="0" style="stop-color:#394967"/>
			<stop  offset="1" style="stop-color:#232D4A"/>
		</linearGradient>
		<path class="st25" d="M308.6,136.7h-2.9c-0.4,0-0.7-0.3-0.7-0.7s0.3-0.7,0.7-0.7c0,0,0,0,0,0h2.9c0.4,0,0.7,0.3,0.7,0.7
			S309,136.7,308.6,136.7C308.6,136.7,308.6,136.7,308.6,136.7z"/>
		
			<linearGradient id="SVGID_23_" gradientUnits="userSpaceOnUse" x1="294.5204" y1="115.66" x2="294.5204" y2="97.89" gradientTransform="matrix(1 0 0 -1 0 238)">
			<stop  offset="0" style="stop-color:#394967"/>
			<stop  offset="1" style="stop-color:#232D4A"/>
		</linearGradient>
		<path class="st26" d="M294.5,150.8c-0.4,0-0.7-0.3-0.7-0.7c0,0,0,0,0,0v-2.9c0-0.4,0.3-0.7,0.7-0.7c0.4,0,0.7,0.3,0.7,0.7v2.9
			C295.2,150.5,294.9,150.8,294.5,150.8z"/>
		
			<linearGradient id="SVGID_24_" gradientUnits="userSpaceOnUse" x1="281.8804" y1="115.66" x2="281.8804" y2="97.89" gradientTransform="matrix(1 0 0 -1 0 238)">
			<stop  offset="0" style="stop-color:#394967"/>
			<stop  offset="1" style="stop-color:#232D4A"/>
		</linearGradient>
		<path class="st27" d="M283.3,136.7h-2.9c-0.4,0-0.7-0.3-0.7-0.7c0-0.4,0.3-0.7,0.7-0.7h2.9c0.4,0,0.7,0.3,0.7,0.7
			C284,136.4,283.7,136.7,283.3,136.7z"/>
		
			<linearGradient id="SVGID_25_" gradientUnits="userSpaceOnUse" x1="296.6597" y1="115.66" x2="296.6597" y2="97.89" gradientTransform="matrix(1 0 0 -1 0 238)">
			<stop  offset="0" style="stop-color:#394967"/>
			<stop  offset="1" style="stop-color:#232D4A"/>
		</linearGradient>
		<path class="st28" d="M294.5,136.7L294.5,136.7c-0.3,0-0.4-0.1-0.5-0.3l-5.3-6.8c-0.2-0.3-0.2-0.7,0.1-1c0,0,0,0,0,0
			c0.3-0.2,0.8-0.2,1,0.1c0,0,0,0,0,0l4.9,6.2l9-7.4c0.3-0.3,0.7-0.2,1,0.1s0.2,0.7-0.1,1c0,0,0,0,0,0l-9.6,7.8
			C294.8,136.7,294.7,136.7,294.5,136.7z"/>
		
			<linearGradient id="SVGID_26_" gradientUnits="userSpaceOnUse" x1="262.8961" y1="180.5341" x2="292.9186" y2="180.5341" gradientTransform="matrix(1 0 0 -1 1.053737e-02 237.9978)">
			<stop  offset="0" style="stop-color:#F0CD30"/>
			<stop  offset="1" style="stop-color:#F2D84E"/>
		</linearGradient>
		<polygon class="st29" points="269.1,76.2 262.9,71.7 286.7,38.8 292.9,43.2 		"/>
		
			<linearGradient id="SVGID_27_" gradientUnits="userSpaceOnUse" x1="258.5682" y1="184.3507" x2="286.7357" y2="184.3507" gradientTransform="matrix(1 0 0 -1 -3.642493e-03 238.0081)">
			<stop  offset="0" style="stop-color:#F0CD30"/>
			<stop  offset="1" style="stop-color:#E8AB28"/>
		</linearGradient>
		<polygon class="st30" points="262.9,71.7 258.6,68.6 282.4,35.6 286.7,38.8 		"/>
		
			<linearGradient id="SVGID_28_" gradientUnits="userSpaceOnUse" x1="269.0826" y1="176.7396" x2="297.2501" y2="176.7396" gradientTransform="matrix(1 0 0 -1 -1.165044e-03 237.9956)">
			<stop  offset="0" style="stop-color:#F0CD30"/>
			<stop  offset="1" style="stop-color:#E8AB28"/>
		</linearGradient>
		<polygon class="st31" points="273.4,79.3 269.1,76.2 292.9,43.2 297.2,46.4 		"/>
		
			<linearGradient id="SVGID_29_" gradientUnits="userSpaceOnUse" x1="282.4182" y1="199.6268" x2="301.038" y2="199.6268" gradientTransform="matrix(1 0 0 -1 7.015206e-03 237.9924)">
			<stop  offset="0" style="stop-color:#F5DEC3"/>
			<stop  offset="1" style="stop-color:#F0C77C"/>
		</linearGradient>
		<polygon class="st32" points="297.3,46.4 282.4,35.6 286.2,30.4 301,41.1 		"/>
		
			<linearGradient id="SVGID_30_" gradientUnits="userSpaceOnUse" x1="296.7245" y1="196.8831" x2="296.7245" y2="216.9031" gradientTransform="matrix(1 0 0 -1 3.856225e-03 238.0014)">
			<stop  offset="0" style="stop-color:#DC5D17"/>
			<stop  offset="1" style="stop-color:#E79A49"/>
		</linearGradient>
		<path class="st33" d="M301,41.1l-14.8-10.7l0,0l5.4-7.4c1.5-2,4.2-2.4,6.2-1l7.6,5.5c2,1.4,2.4,4.2,1,6.2L301,41.1L301,41.1z"/>
		
			<linearGradient id="SVGID_31_" gradientUnits="userSpaceOnUse" x1="254.3404" y1="158.75" x2="273.5104" y2="158.75" gradientTransform="matrix(1 0 0 -1 0 238)">
			<stop  offset="0" style="stop-color:#F5DEC3"/>
			<stop  offset="1" style="stop-color:#F0C77C"/>
		</linearGradient>
		<polygon class="st34" points="254.3,90 273.5,79.4 258.5,68.5 		"/>
		
			<linearGradient id="SVGID_32_" gradientUnits="userSpaceOnUse" x1="261.2808" y1="157.5597" x2="256.2008" y2="150.5697" gradientTransform="matrix(1 0 0 -1 0 238)">
			<stop  offset="0" style="stop-color:#3C2308"/>
			<stop  offset="1" style="stop-color:#4E3421"/>
		</linearGradient>
		<polygon class="st35" points="256.2,80.1 254.3,90 263.2,85.1 		"/>
		
			<linearGradient id="SVGID_33_" gradientUnits="userSpaceOnUse" x1="143.5504" y1="85.81" x2="143.5504" y2="46.94" gradientTransform="matrix(1 0 0 -1 0 238)">
			<stop  offset="0" style="stop-color:#394967"/>
			<stop  offset="1" style="stop-color:#232D4A"/>
		</linearGradient>
		<path class="st36" d="M112.2,144.8H175c1.4,0,2.6,1.2,2.6,2.6v43.4c0,1.4-1.2,2.6-2.6,2.6h-62.8c-1.4,0-2.6-1.2-2.6-2.6v-43.4
			C109.5,146,110.7,144.8,112.2,144.8z"/>
		
			<linearGradient id="SVGID_34_" gradientUnits="userSpaceOnUse" x1="143.5454" y1="76.55" x2="143.5454" y2="90.86" gradientTransform="matrix(1 0 0 -1 0 238)">
			<stop  offset="0" style="stop-color:#7B7B7B"/>
			<stop  offset="1" style="stop-color:#EDEDED"/>
		</linearGradient>
		<path class="st37" d="M177.6,153.3v-5.8c0-1.4-1.2-2.6-2.6-2.6c0,0,0,0,0,0h-62.8c-1.4,0-2.6,1.2-2.6,2.6c0,0,0,0,0,0v5.8H177.6z"
			/>
		
			<linearGradient id="SVGID_35_" gradientUnits="userSpaceOnUse" x1="114.3604" y1="87.06" x2="114.3604" y2="90.82" gradientTransform="matrix(1 0 0 -1 0 238)">
			<stop  offset="0" style="stop-color:#DC5D17"/>
			<stop  offset="1" style="stop-color:#E79A49"/>
		</linearGradient>
		<path class="st38" d="M116.2,149.1c0,1-0.8,1.9-1.9,1.9c-1,0-1.9-0.8-1.9-1.9c0-1,0.8-1.9,1.9-1.9S116.2,148,116.2,149.1
			L116.2,149.1z"/>
		
			<linearGradient id="SVGID_36_" gradientUnits="userSpaceOnUse" x1="121.7204" y1="91.29" x2="121.7204" y2="87.76" gradientTransform="matrix(1 0 0 -1 0 238)">
			<stop  offset="0" style="stop-color:#F0CD30"/>
			<stop  offset="1" style="stop-color:#E8AB28"/>
		</linearGradient>
		<path class="st39" d="M123.6,149.1c0,1-0.8,1.9-1.9,1.9c-1,0-1.9-0.8-1.9-1.9c0-1,0.8-1.9,1.9-1.9S123.6,148,123.6,149.1
			L123.6,149.1z"/>
		<path class="st40" d="M131,149.1c0,1-0.8,1.9-1.9,1.9c-1,0-1.9-0.8-1.9-1.9c0-1,0.8-1.9,1.9-1.9C130.1,147.2,131,148,131,149.1
			L131,149.1z"/>
		<path class="st18" d="M172.8,172.8l-9.5-9.5c-0.3-0.5-0.9-0.7-1.4-0.4c-0.5,0.3-0.7,0.9-0.4,1.4c0.1,0.2,0.2,0.3,0.4,0.4l8.8,8.8
			l-8.8,8.8c-0.4,0.4-0.4,1,0,1.3c0,0,0,0,0,0c0.2,0.2,0.4,0.3,0.7,0.3c0.3,0,0.5-0.1,0.7-0.3l9.5-9.5
			C173.2,173.8,173.2,173.2,172.8,172.8C172.8,172.8,172.8,172.8,172.8,172.8z"/>
		<path class="st18" d="M125.1,163.3c-0.4-0.3-1-0.3-1.3,0l-9.5,9.5c-0.4,0.4-0.4,1,0,1.3c0,0,0,0,0,0l9.5,9.5
			c0.2,0.2,0.4,0.3,0.7,0.3c0.3,0,0.5-0.1,0.7-0.3c0.4-0.4,0.4-1,0-1.3c0,0,0,0,0,0l-8.8-8.8l8.8-8.8
			C125.5,164.3,125.5,163.7,125.1,163.3z"/>
		<path class="st18" d="M141.1,161.3c-0.5-0.2-1,0-1.3,0.5l-10.6,23.7c-0.2,0.5,0,1,0.5,1.3c0.1,0.1,0.3,0.1,0.4,0.1
			c0.4,0,0.7-0.2,0.9-0.6l10.6-23.7C141.8,162,141.6,161.5,141.1,161.3z"/>
		<path class="st18" d="M139.7,176.7c-0.9,0.1-1.5,0.8-1.5,1.7c0.1,0.8,0.7,1.4,1.5,1.5c0.9-0.1,1.5-0.8,1.5-1.7
			C141.1,177.4,140.5,176.7,139.7,176.7z"/>
		<path class="st18" d="M146.1,176.7c-0.9,0.1-1.5,0.8-1.5,1.7c0.1,0.8,0.7,1.4,1.5,1.5c0.9-0.1,1.5-0.8,1.5-1.7
			C147.5,177.4,146.9,176.7,146.1,176.7z"/>
		<path class="st18" d="M152.5,176.7c-0.9,0.1-1.5,0.8-1.5,1.7c0.1,0.8,0.7,1.4,1.5,1.5c0.9-0.1,1.5-0.8,1.5-1.7
			C153.9,177.4,153.3,176.7,152.5,176.7z"/>
		
			<linearGradient id="SVGID_37_" gradientUnits="userSpaceOnUse" x1="206.3954" y1="66.43" x2="206.3954" y2="-30.24" gradientTransform="matrix(1 0 0 -1 0 238)">
			<stop  offset="0" style="stop-color:#7B7B7B"/>
			<stop  offset="1" style="stop-color:#EDEDED"/>
		</linearGradient>
		<polygon class="st41" points="216.9,227.6 209.6,227.6 195.9,158.4 203.2,158.4 		"/>
		
			<linearGradient id="SVGID_38_" gradientUnits="userSpaceOnUse" x1="270.2554" y1="66.43" x2="270.2554" y2="-30.24" gradientTransform="matrix(1 0 0 -1 0 238)">
			<stop  offset="0" style="stop-color:#7B7B7B"/>
			<stop  offset="1" style="stop-color:#EDEDED"/>
		</linearGradient>
		<polygon class="st42" points="273.5,227.6 280.8,227.6 267,158.4 259.7,158.4 		"/>
		
			<linearGradient id="SVGID_39_" gradientUnits="userSpaceOnUse" x1="199.5154" y1="-22.72" x2="199.5154" y2="65.87" gradientTransform="matrix(1 0 0 -1 0 238)">
			<stop  offset="0" style="stop-color:#9B9B9B"/>
			<stop  offset="1" style="stop-color:#EDEDED"/>
		</linearGradient>
		<rect x="195.9" y="158.4" class="st43" width="7.3" height="69.3"/>
		
			<linearGradient id="SVGID_40_" gradientUnits="userSpaceOnUse" x1="263.3654" y1="-22.72" x2="263.3654" y2="65.87" gradientTransform="matrix(1 0 0 -1 0 238)">
			<stop  offset="0" style="stop-color:#9B9B9B"/>
			<stop  offset="1" style="stop-color:#EDEDED"/>
		</linearGradient>
		<rect x="259.7" y="158.4" class="st44" width="7.3" height="69.3"/>
		<rect x="191.6" y="158.4" class="st45" width="79.6" height="17.1"/>
		
			<linearGradient id="SVGID_41_" gradientUnits="userSpaceOnUse" x1="202.0104" y1="62.57" x2="202.0104" y2="79.63" gradientTransform="matrix(1 0 0 -1 0 238)">
			<stop  offset="0" style="stop-color:#DC5D17"/>
			<stop  offset="1" style="stop-color:#E79A49"/>
		</linearGradient>
		<polygon class="st46" points="201.8,158.4 191.6,167.8 191.6,175.4 194,175.4 212.4,158.4 		"/>
		
			<linearGradient id="SVGID_42_" gradientUnits="userSpaceOnUse" x1="220.9604" y1="62.57" x2="220.9604" y2="79.63" gradientTransform="matrix(1 0 0 -1 0 238)">
			<stop  offset="0" style="stop-color:#DC5D17"/>
			<stop  offset="1" style="stop-color:#E79A49"/>
		</linearGradient>
		<polygon class="st47" points="224.8,158.4 206.5,175.4 217.1,175.4 235.5,158.4 		"/>
		
			<linearGradient id="SVGID_43_" gradientUnits="userSpaceOnUse" x1="244.0104" y1="62.57" x2="244.0104" y2="79.63" gradientTransform="matrix(1 0 0 -1 0 238)">
			<stop  offset="0" style="stop-color:#DC5D17"/>
			<stop  offset="1" style="stop-color:#E79A49"/>
		</linearGradient>
		<polygon class="st48" points="247.9,158.4 229.5,175.4 240.1,175.4 258.5,158.4 		"/>
		
			<linearGradient id="SVGID_44_" gradientUnits="userSpaceOnUse" x1="261.9204" y1="62.57" x2="261.9204" y2="79.63" gradientTransform="matrix(1 0 0 -1 0 238)">
			<stop  offset="0" style="stop-color:#DC5D17"/>
			<stop  offset="1" style="stop-color:#E79A49"/>
		</linearGradient>
		<polygon class="st49" points="271.3,158.4 270.9,158.4 252.6,175.4 263.2,175.4 271.3,167.9 		"/>
		<rect x="191.6" y="186.9" class="st45" width="79.6" height="17.1"/>
		
			<linearGradient id="SVGID_45_" gradientUnits="userSpaceOnUse" x1="202.0104" y1="34.02" x2="202.0104" y2="51.08" gradientTransform="matrix(1 0 0 -1 0 238)">
			<stop  offset="0" style="stop-color:#DC5D17"/>
			<stop  offset="1" style="stop-color:#E79A49"/>
		</linearGradient>
		<polygon class="st50" points="201.8,186.9 191.6,196.4 191.6,204 194,204 212.4,186.9 		"/>
		
			<linearGradient id="SVGID_46_" gradientUnits="userSpaceOnUse" x1="220.9604" y1="34.02" x2="220.9604" y2="51.08" gradientTransform="matrix(1 0 0 -1 0 238)">
			<stop  offset="0" style="stop-color:#DC5D17"/>
			<stop  offset="1" style="stop-color:#E79A49"/>
		</linearGradient>
		<polygon class="st51" points="224.8,186.9 206.5,204 217.1,204 235.5,186.9 		"/>
		
			<linearGradient id="SVGID_47_" gradientUnits="userSpaceOnUse" x1="244.0104" y1="34.02" x2="244.0104" y2="51.08" gradientTransform="matrix(1 0 0 -1 0 238)">
			<stop  offset="0" style="stop-color:#DC5D17"/>
			<stop  offset="1" style="stop-color:#E79A49"/>
		</linearGradient>
		<polygon class="st52" points="247.9,186.9 229.5,204 240.1,204 258.5,186.9 		"/>
		
			<linearGradient id="SVGID_48_" gradientUnits="userSpaceOnUse" x1="261.9204" y1="34.02" x2="261.9204" y2="51.08" gradientTransform="matrix(1 0 0 -1 0 238)">
			<stop  offset="0" style="stop-color:#DC5D17"/>
			<stop  offset="1" style="stop-color:#E79A49"/>
		</linearGradient>
		<polygon class="st53" points="271.3,186.9 270.9,186.9 252.6,204 263.2,204 271.3,196.5 		"/>
		
			<linearGradient id="SVGID_49_" gradientUnits="userSpaceOnUse" x1="209.4504" y1="56.825" x2="253.4304" y2="56.825" gradientTransform="matrix(1 0 0 -1 0 238)">
			<stop  offset="0" style="stop-color:#F0CD30"/>
			<stop  offset="1" style="stop-color:#E8AB28"/>
		</linearGradient>
		<rect x="209.5" y="169.1" class="st54" width="44" height="24.1"/>
		
			<linearGradient id="SVGID_50_" gradientUnits="userSpaceOnUse" x1="109.3554" y1="160.14" x2="109.3554" y2="186.49" gradientTransform="matrix(1 0 0 -1 0 238)">
			<stop  offset="0" style="stop-color:#5689AC"/>
			<stop  offset="1" style="stop-color:#72BFD0"/>
		</linearGradient>
		<path class="st55" d="M119.8,67.1l2.9-0.9c0.1-0.5,0.1-1,0.1-1.5c0-0.5,0-1-0.1-1.5l-2.9-0.9h-0.1c-0.1-0.6-0.3-1.2-0.6-1.8
			l0.1-0.1l1.9-2.5c-0.5-0.9-1.1-1.7-1.8-2.4l-2.9,1h-0.1c-0.5-0.4-1-0.8-1.5-1.1v0l0.1-3.1c-0.9-0.4-1.9-0.7-2.9-0.9l-1.7,2.5
			l-0.1,0.1c-0.3,0-0.6,0-0.9,0s-0.6,0-0.9,0l-0.1-0.1l-1.7-2.5c-1,0.2-1.9,0.5-2.8,0.9l0.1,3.1v0.1c-0.5,0.3-1,0.7-1.5,1.1h-0.1
			l-2.9-1c-0.7,0.7-1.3,1.5-1.8,2.3l1.9,2.4l0.1,0.1c-0.2,0.6-0.4,1.2-0.5,1.8H99L96,63.2c0,0.5-0.1,1-0.1,1.5c0,0.5,0,1,0.1,1.5
			L99,67h0.1c0.1,0.6,0.3,1.2,0.6,1.7l-0.1,0.1l-1.9,2.4c0.5,0.9,1.1,1.7,1.8,2.4l2.9-1h0.1c0.5,0.4,1,0.8,1.5,1.1v0.1l-0.1,3.1
			c0.9,0.4,1.9,0.7,2.8,0.9l1.7-2.5l0.1-0.1c0.3,0,0.6,0.1,0.9,0.1s0.6,0,0.9-0.1l0.1,0.1l1.7,2.5c1-0.2,1.9-0.5,2.8-0.9l-0.1-3.1
			v-0.1c0.5-0.3,1-0.7,1.5-1.1h0.1l2.9,1c0.7-0.7,1.3-1.5,1.8-2.4l-1.9-2.4l-0.1-0.1C119.4,68.3,119.5,67.7,119.8,67.1L119.8,67.1z
			 M109.3,70.2c-3,0-5.5-2.5-5.5-5.5s2.5-5.5,5.5-5.5s5.5,2.5,5.5,5.5c0,0,0,0,0,0C114.8,67.7,112.4,70.2,109.3,70.2z"/>
		
			<linearGradient id="SVGID_51_" gradientUnits="userSpaceOnUse" x1="95.4204" y1="112.7" x2="95.4204" y2="153.31" gradientTransform="matrix(1 0 0 -1 0 238)">
			<stop  offset="0" style="stop-color:#DC5D17"/>
			<stop  offset="1" style="stop-color:#E79A49"/>
		</linearGradient>
		<path class="st56" d="M112.9,99.1l4.6-1.4c0-1.2-0.1-2.4-0.4-3.6l-4.8-0.5c-0.2-0.6-0.3-1.1-0.6-1.7l3.6-3.2
			c-0.5-1.1-1.1-2.1-1.8-3.1l-4.5,1.5c-0.4-0.5-0.8-0.9-1.2-1.3l2-4.4c-0.9-0.8-1.9-1.5-2.9-2.1l-3.6,3.3c-0.5-0.3-1.1-0.5-1.6-0.7
			V77c-1.2-0.3-2.3-0.6-3.5-0.8l-1.9,4.4h-0.9h-0.9l-1.9-4.4c-1.2,0.2-2.4,0.4-3.5,0.8v4.8c-0.6,0.2-1.1,0.5-1.6,0.7l-3.5-3.3
			c-1,0.6-1.9,1.3-2.8,2.1l2,4.4c-0.4,0.4-0.8,0.9-1.2,1.3l-4.6-1.5c-0.7,1-1.3,2-1.8,3.1l3.6,3.2c-0.2,0.6-0.4,1.1-0.6,1.7
			l-4.8,0.5c-0.2,1.2-0.3,2.4-0.4,3.6l4.6,1.4c0,0.6,0.1,1.2,0.2,1.8l-4.2,2.4c0.3,1.2,0.7,2.3,1.1,3.4l4.8-0.5
			c0.3,0.5,0.6,1.1,0.9,1.6l-2.9,3.9c0.7,1,1.5,1.9,2.4,2.7l4.1-2.4c0.5,0.4,1,0.7,1.4,1l-1,4.7c1.1,0.6,2.2,1.1,3.3,1.5L91,115
			c0.6,0.2,1.2,0.3,1.8,0.4l1,4.7c0.6,0,1.2,0.1,1.8,0.1s1.2,0,1.8-0.1l0.9-4.7c0.6-0.1,1.2-0.2,1.8-0.4l2.7,4
			c1.1-0.4,2.2-0.9,3.3-1.5l-1-4.7c0.5-0.3,1-0.6,1.4-1l4.1,2.4c0.9-0.8,1.7-1.7,2.4-2.7l-2.9-3.9c0.3-0.5,0.6-1,0.9-1.6l4.8,0.5
			c0.5-1.1,0.8-2.3,1.1-3.4l-4.2-2.4C112.9,100.3,112.9,99.7,112.9,99.1z M95.4,107.1c-4.9,0-8.9-4-8.9-8.9s4-8.9,8.9-8.9
			s8.9,4,8.9,8.9l0,0C104.3,103.1,100.3,107.1,95.4,107.1L95.4,107.1z"/>
		
			<linearGradient id="SVGID_52_" gradientUnits="userSpaceOnUse" x1="84.5604" y1="12.22" x2="84.5604" y2="52.5" gradientTransform="matrix(1 0 0 -1 0 238)">
			<stop  offset="0" style="stop-color:#DC5D17"/>
			<stop  offset="1" style="stop-color:#E79A49"/>
		</linearGradient>
		<path class="st57" d="M84.6,185.5L84.6,185.5c-2.5,0-4.7,1.5-5.7,3.8l-15.1,36.5h41.6l-15.1-36.5C89.3,187,87,185.5,84.6,185.5z"
			/>
		
			<linearGradient id="SVGID_53_" gradientUnits="userSpaceOnUse" x1="84.5604" y1="8.14" x2="84.5604" y2="12.22" gradientTransform="matrix(1 0 0 -1 0 238)">
			<stop  offset="0" style="stop-color:#DC5D17"/>
			<stop  offset="1" style="stop-color:#E79A49"/>
		</linearGradient>
		<path class="st58" d="M111.3,229.9H57.8c-1.1,0-2-0.9-2-2l0,0c0-1.1,0.9-2,2-2h53.6c1.1,0,2,0.9,2,2l0,0
			C113.3,229,112.4,229.9,111.3,229.9z"/>
		<polygon class="st45" points="91,191.2 78.1,191.2 74.8,199.1 94.3,199.1 		"/>
		<polygon class="st45" points="68,215.5 101.1,215.5 97.8,207.6 71.3,207.6 		"/>
		
			<linearGradient id="SVGID_54_" gradientUnits="userSpaceOnUse" x1="302.2304" y1="-1.84" x2="302.2304" y2="41.44" gradientTransform="matrix(1 0 0 -1 0 238)">
			<stop  offset="0" style="stop-color:#DC5D17"/>
			<stop  offset="1" style="stop-color:#E79A49"/>
		</linearGradient>
		<path class="st59" d="M302.2,196.6L302.2,196.6c-2.7,0-5.1,1.6-6.1,4.1l-16.3,39.2h44.7l-16.3-39.2
			C307.3,198.2,304.9,196.6,302.2,196.6z"/>
		
			<linearGradient id="SVGID_55_" gradientUnits="userSpaceOnUse" x1="302.2254" y1="-6.23" x2="302.2254" y2="-1.84" gradientTransform="matrix(1 0 0 -1 0 238)">
			<stop  offset="0" style="stop-color:#DC5D17"/>
			<stop  offset="1" style="stop-color:#E79A49"/>
		</linearGradient>
		<path class="st60" d="M273.5,239.8h57.4c1.2,0,2.2,1,2.2,2.2v0c0,1.2-1,2.2-2.2,2.2h-57.4c-1.2,0-2.2-1-2.2-2.2v0
			C271.3,240.8,272.3,239.8,273.5,239.8z"/>
		<polygon class="st45" points="309.2,202.7 295.3,202.7 291.8,211.1 312.7,211.1 		"/>
		<polygon class="st45" points="284.5,228.8 320,228.8 316.5,220.3 288,220.3 		"/>
		<path class="st61" d="M207.9,31.6c-1,0.8-2.1,0.7-3.3,0v-3.8h3.3V31.6z"/>
		<path class="st62" d="M234.8,65.9c0.6-2-0.5-4.1-2.4-4.7l-14.3-3.9l-10.9-0.2l1.2,3.7c-0.1,3.4,2.5,6.4,6,6.5c0,0,0,0,0,0h14
			l1.6,12.4l4.8-1L234.8,65.9z"/>
		
			<linearGradient id="SVGID_56_" gradientUnits="userSpaceOnUse" x1="234.7454" y1="151.26" x2="234.7454" y2="159.32" gradientTransform="matrix(1 0 0 -1 0 238)">
			<stop  offset="0" style="stop-color:#DC5D17"/>
			<stop  offset="1" style="stop-color:#E79A49"/>
		</linearGradient>
		<path class="st63" d="M239.6,83.8c-0.1-1.4-1.3-2.6-2.7-2.5c-0.3,0-0.5,0.1-0.8,0.2l-1.3,0.5v-3.2l-4.8,1l0.6,4.7
			c-0.2,1.1,0.5,2.1,1.6,2.4c0.1,0,0.2,0,0.3,0l6.3-2C239.2,84.7,239.6,84.3,239.6,83.8L239.6,83.8z"/>
		
			<linearGradient id="SVGID_57_" gradientUnits="userSpaceOnUse" x1="201.2904" y1="212.7431" x2="209.7804" y2="212.7431" gradientTransform="matrix(1 0 0 -1 0 238)">
			<stop  offset="0" style="stop-color:#F5DEC3"/>
			<stop  offset="1" style="stop-color:#F0C77C"/>
		</linearGradient>
		<path class="st64" d="M205.2,30.2c-0.8-0.2-1.6-0.6-2.3-1.2c-0.8-0.9-1.2-2.1-1.3-3.3c-0.2-1.2-0.3-2.4-0.3-3.6
			c-0.1-0.4,0-0.8,0.2-1.2c0.3-0.4,0.9-0.7,1.4-0.7c2.2-0.4,4.5-0.1,6.5,0.9c-0.2,1.9-0.1,3.9,0.2,5.8c0.3,0.9,0.2,1.9-0.1,2.8
			c-0.5,0.6-1.2,1-2,1C206.7,30.6,205.9,30.4,205.2,30.2z"/>
		
			<linearGradient id="SVGID_58_" gradientUnits="userSpaceOnUse" x1="202.7135" y1="207.28" x2="202.7135" y2="214.56" gradientTransform="matrix(1 0 0 -1 0 238)">
			<stop  offset="0" style="stop-color:#394967"/>
			<stop  offset="1" style="stop-color:#232D4A"/>
		</linearGradient>
		<path class="st65" d="M200.5,20.9c-0.1,2,0,4.1,0.3,6.1c0.1,0.4,0.2,0.8,0.3,1.2c0.2,0.4,0.5,0.7,0.8,0.9c0.6,0.2,1.2,0.1,1.6-0.4
			c0.4-0.4,0.7-1,0.8-1.5c0.1-0.4-0.4-0.7-0.7-1c-0.4-0.2-0.7-0.5-0.9-0.9c-0.2-0.4-0.2-0.8,0-1.1c0.2-0.4,0.6-0.5,1-0.5
			c0.4,0.1,0.7,0.4,0.7,0.8c0.2-0.1,0.4-0.3,0.6-0.4c-0.5-0.4-0.8-0.9-0.9-1.5c-0.1-0.6,0.1-1.2,0.4-1.7
			C203.2,20.3,201.8,20.3,200.5,20.9z"/>
		
			<linearGradient id="SVGID_59_" gradientUnits="userSpaceOnUse" x1="205.7304" y1="180.44" x2="205.7304" y2="209.9" gradientTransform="matrix(1 0 0 -1 0 238)">
			<stop  offset="0" style="stop-color:#DC5D17"/>
			<stop  offset="1" style="stop-color:#E79A49"/>
		</linearGradient>
		<path class="st66" d="M211.5,31.9l-3.7-0.3h-3.3l-5.4,0.5l-1.6,25.5l16.3-0.6l-1.7-25C212,32,211.8,32,211.5,31.9z"/>
		
			<linearGradient id="SVGID_60_" gradientUnits="userSpaceOnUse" x1="214.4854" y1="180.44" x2="214.4854" y2="209.9" gradientTransform="matrix(1 0 0 -1 0 238)">
			<stop  offset="0" style="stop-color:#DC5D17"/>
			<stop  offset="1" style="stop-color:#E79A49"/>
		</linearGradient>
		<path class="st67" d="M216.8,53.9l-2.4-19.2c-0.2-1.3-1-2.3-2.3-2.7l1.7,25l1.9-0.1L216.8,53.9z"/>
		
			<linearGradient id="SVGID_61_" gradientUnits="userSpaceOnUse" x1="198.5885" y1="180.44" x2="198.5885" y2="209.9" gradientTransform="matrix(1 0 0 -1 0 238)">
			<stop  offset="0" style="stop-color:#DC5D17"/>
			<stop  offset="1" style="stop-color:#E79A49"/>
		</linearGradient>
		<path class="st68" d="M199.2,32.2l-0.9,0.2c-1,0.2-1.8,0.9-2.1,1.8l-4,13.5c-0.4,1.4,0.2,2.9,1.5,3.5l10,5.3l1.4-1.9l-8.3-6.8
			l1.7-5.5L199.2,32.2z"/>
		
			<linearGradient id="SVGID_62_" gradientUnits="userSpaceOnUse" x1="203.7204" y1="182.3716" x2="207.6604" y2="182.3716" gradientTransform="matrix(1 0 0 -1 0 238)">
			<stop  offset="0" style="stop-color:#F5DEC3"/>
			<stop  offset="1" style="stop-color:#F0C77C"/>
		</linearGradient>
		<path class="st69" d="M205.2,54.6c0.8-0.1,1.7-0.1,2.5,0.2l-0.3,1.4c-0.7,0.4-1.6,0.5-2.4,0.3c-0.4,0.3-0.9,0.3-1.3,0L205.2,54.6z
			"/>
		
			<linearGradient id="SVGID_63_" gradientUnits="userSpaceOnUse" x1="205.2304" y1="186.12" x2="224.3504" y2="186.12" gradientTransform="matrix(1 0 0 -1 0 238)">
			<stop  offset="0" style="stop-color:#9B9B9B"/>
			<stop  offset="1" style="stop-color:#EDEDED"/>
		</linearGradient>
		<polygon class="st70" points="205.2,57.3 219.7,57.3 224.4,46.5 209.9,46.5 		"/>
		
			<linearGradient id="SVGID_64_" gradientUnits="userSpaceOnUse" x1="212.0995" y1="0.3" x2="212.0995" y2="34.48" gradientTransform="matrix(1 0 0 -1 0 238)">
			<stop  offset="0" style="stop-color:#6091D5"/>
			<stop  offset="1" style="stop-color:#3F6096"/>
		</linearGradient>
		<path class="st71" d="M226.5,65.9c0.6-2-0.5-4.1-2.5-4.7c-0.1,0-0.1,0-0.2,0l-15.6-3.9l-10.6,0.4v3.1c0,3.6,2.9,6.5,6.5,6.5h15.3
			L217.4,80h4.8L226.5,65.9z"/>
		
			<linearGradient id="SVGID_65_" gradientUnits="userSpaceOnUse" x1="221.7528" y1="151.26" x2="221.7528" y2="158.01" gradientTransform="matrix(1 0 0 -1 0 238)">
			<stop  offset="0" style="stop-color:#DC5D17"/>
			<stop  offset="1" style="stop-color:#E79A49"/>
		</linearGradient>
		<path class="st72" d="M224.1,83.1h-2.8l0.9-3.1h-4.8l-0.7,4.3c-0.2,1.1,0.6,2.2,1.7,2.4c0.1,0,0.2,0,0.3,0h7
			c0.5,0,0.9-0.4,0.9-0.9C226.8,84.3,225.6,83.1,224.1,83.1z"/>
		
			<linearGradient id="SVGID_66_" gradientUnits="userSpaceOnUse" x1="200.3243" y1="218.9139" x2="212.0443" y2="218.9139" gradientTransform="matrix(1 0 0 -1 0 238)">
			<stop  offset="0" style="stop-color:#F0CD30"/>
			<stop  offset="1" style="stop-color:#E8AB28"/>
		</linearGradient>
		<path class="st73" d="M211.4,19.7l-1.9,0.2c-0.7-2.5-3.2-4-5.7-3.4c-2.2,0.6-3.6,2.6-3.5,4.8c0,0.1,0,0.3,0,0.5
			c3.1-0.1,6.3-0.4,9.4-0.8l1.8-0.1c0.3,0,0.6-0.3,0.6-0.6S211.8,19.7,211.4,19.7C211.5,19.7,211.4,19.7,211.4,19.7L211.4,19.7z"/>
		
			<linearGradient id="SVGID_67_" gradientUnits="userSpaceOnUse" x1="24.3632" y1="-4.47" x2="24.3632" y2="26.06" gradientTransform="matrix(1 0 0 -1 0 238)">
			<stop  offset="0" style="stop-color:#6091D5"/>
			<stop  offset="1" style="stop-color:#3F6096"/>
		</linearGradient>
		<path class="st74" d="M28.3,202.8l-10.6-0.2c4.8,13.7,8.1,26.1,8.1,36h4.8C31.8,229,30.5,216.5,28.3,202.8z"/>
		
			<linearGradient id="SVGID_68_" gradientUnits="userSpaceOnUse" x1="30.79" y1="-1.32" x2="30.79" y2="-6.51" gradientTransform="matrix(1 0 0 -1 0 238)">
			<stop  offset="0" style="stop-color:#394967"/>
			<stop  offset="1" style="stop-color:#232D4A"/>
		</linearGradient>
		<path class="st75" d="M33.2,241.6h-2.8l0.1-3.1h-4.8l0.4,4.4c0.2,1.3,1.3,2.3,2.7,2.4h6.1c0.4,0,0.7-0.3,0.7-0.7
			c0-0.1,0-0.2,0-0.3C35.3,242.9,35.1,241.6,33.2,241.6z"/>
		
			<linearGradient id="SVGID_69_" gradientUnits="userSpaceOnUse" x1="18.2654" y1="0.3" x2="18.2654" y2="34.48" gradientTransform="matrix(1 0 0 -1 0 238)">
			<stop  offset="0" style="stop-color:#6091D5"/>
			<stop  offset="1" style="stop-color:#4868A4"/>
		</linearGradient>
		<path class="st76" d="M24.1,203.8l-10.5-0.3c1.3,13.7,1.4,26.1-1.1,36h4.8C20.9,230,22.8,217.4,24.1,203.8z"/>
		
			<linearGradient id="SVGID_70_" gradientUnits="userSpaceOnUse" x1="16.8087" y1="-1.32" x2="16.8087" y2="-6.51" gradientTransform="matrix(1 0 0 -1 0 238)">
			<stop  offset="0" style="stop-color:#394967"/>
			<stop  offset="1" style="stop-color:#232D4A"/>
		</linearGradient>
		<path class="st77" d="M19.1,242.6h-2.8l0.9-3.1h-4.8l-0.7,4.4c-0.2,1.1,0.6,2.2,1.8,2.4c0.1,0,0.2,0,0.3,0h7
			c0.5,0,0.9-0.4,0.9-0.9C21.8,243.8,20.6,242.6,19.1,242.6z"/>
		
			<linearGradient id="SVGID_71_" gradientUnits="userSpaceOnUse" x1="16.3275" y1="33.8284" x2="16.3275" y2="80.72" gradientTransform="matrix(1 0 0 -1 0 238)">
			<stop  offset="0" style="stop-color:#5689AC"/>
			<stop  offset="1" style="stop-color:#72BFD0"/>
		</linearGradient>
		<path class="st78" d="M12.4,183.2l4.7-0.8l3.3-0.5h3.2l3.8-10.8L22,158.7l2.4-1.5l7.4,13c0.5,0.8,0.6,1.8,0.3,2.7l-4.6,15.5
			l0.8,14.3c0,0-7.6,2.5-14.7,0.7l-1.1-12.9l-9.6-9.1c-1-0.9-1.6-2.2-1.7-3.6l-0.8-12.4l2.8,0.2l2.3,11.6L12.4,183.2z"/>
		
			<linearGradient id="SVGID_72_" gradientUnits="userSpaceOnUse" x1="21.0104" y1="82.63" x2="25.0604" y2="82.63" gradientTransform="matrix(1 0 0 -1 0 238)">
			<stop  offset="0" style="stop-color:#F5DEC3"/>
			<stop  offset="1" style="stop-color:#F0C77C"/>
		</linearGradient>
		<path class="st79" d="M22,158.7l-0.7-1.3c-0.4-0.8-0.3-1.8,0.3-2.5l2.7-2.9l0.5,1.4c0.4,0.9,0.2,1.9-0.5,2.5l-0.5,0.5l0.5,0.9
			L22,158.7z"/>
		
			<linearGradient id="SVGID_73_" gradientUnits="userSpaceOnUse" x1="5.037232e-02" y1="75.175" x2="4.5304" y2="75.175" gradientTransform="matrix(1 0 0 -1 0 238)">
			<stop  offset="0" style="stop-color:#F5DEC3"/>
			<stop  offset="1" style="stop-color:#F0C77C"/>
		</linearGradient>
		<path class="st80" d="M3.3,165.8v-0.2c0-0.6,0.2-1.1,0.6-1.5l0.6-0.6l-2.2-3.5L1.1,161c-0.8,0.7-1.2,1.7-1,2.8l0.4,1.8L3.3,165.8z
			"/>
		<path class="st61" d="M20.5,182.4c-1,0.8-2.1,0.7-3.3,0v-3.8h3.3V182.4z"/>
		
			<linearGradient id="SVGID_74_" gradientUnits="userSpaceOnUse" x1="12.438" y1="61.7074" x2="23.218" y2="61.7074" gradientTransform="matrix(1 0 0 -1 0 238)">
			<stop  offset="0" style="stop-color:#F5DEC3"/>
			<stop  offset="1" style="stop-color:#F0C77C"/>
		</linearGradient>
		<path class="st81" d="M19.5,181.3c-0.9,0.1-1.7,0.1-2.6-0.2c-1.1-0.6-2-1.5-2.5-2.6c-0.6-1-1.2-2.1-1.7-3.2
			c-0.2-0.4-0.3-0.8-0.3-1.2c0.1-0.5,0.5-1,1-1.2c1.9-1.2,4.1-1.8,6.3-1.8c0.6,1.8,1.4,3.6,2.5,5.2c0.6,0.7,1,1.7,1,2.7
			c-0.2,0.8-0.7,1.4-1.4,1.7C21,181.1,20.3,181.3,19.5,181.3z"/>
		
			<linearGradient id="SVGID_75_" gradientUnits="userSpaceOnUse" x1="16.4137" y1="56.2278" x2="14.4337" y2="62.1878" gradientTransform="matrix(1 0 0 -1 0 238)">
			<stop  offset="0" style="stop-color:#394967"/>
			<stop  offset="1" style="stop-color:#232D4A"/>
		</linearGradient>
		<path class="st82" d="M11.5,174.6c0.7,1.9,1.6,3.8,2.7,5.5c0.2,0.4,0.5,0.7,0.8,1c0.6,0.6,1.5,0.6,2.1,0.1
			c0.2-0.2,0.3-0.4,0.4-0.6c0.2-0.6,0.3-1.2,0.1-1.7c-0.1-0.4-0.6-0.5-1.1-0.6c-0.4-0.1-0.9-0.2-1.2-0.5c-0.3-0.3-0.5-0.7-0.4-1.1
			c0.1-0.4,0.3-0.7,0.7-0.8c0.4-0.1,0.8,0.1,1,0.5c0.1-0.2,0.3-0.4,0.4-0.6c-0.6-0.1-1.1-0.5-1.4-1c-0.3-0.5-0.4-1.1-0.3-1.7
			C13.8,173.1,12.5,173.6,11.5,174.6z"/>
		
			<linearGradient id="SVGID_76_" gradientUnits="userSpaceOnUse" x1="11.1104" y1="66.0869" x2="21.9504" y2="66.0869" gradientTransform="matrix(1 0 0 -1 0 238)">
			<stop  offset="0" style="stop-color:#F0CD30"/>
			<stop  offset="1" style="stop-color:#E8AB28"/>
		</linearGradient>
		<path class="st83" d="M21.1,169.2l-1.6,0.9c-1.6-2.1-4.5-2.5-6.6-0.9c-1.8,1.4-2.4,3.9-1.3,5.9c0.1,0.1,0.1,0.3,0.2,0.4
			c2.8-1.3,5.6-2.8,8.3-4.4l1.6-0.8c0.3-0.1,0.4-0.5,0.2-0.8c0,0,0,0,0-0.1C21.7,169.2,21.4,169.1,21.1,169.2z"/>
		
			<linearGradient id="SVGID_77_" gradientUnits="userSpaceOnUse" x1="-14.978" y1="51.5072" x2="51.892" y2="122.6672" gradientTransform="matrix(1 0 0 -1 0 238)">
			<stop  offset="0" style="stop-color:#7B7B7B"/>
			<stop  offset="1" style="stop-color:#EDEDED"/>
		</linearGradient>
		<path class="st84" d="M29.3,126.8L2.1,153.9c-2.8,2.9-2.7,7.6,0.2,10.4c0.1,0.1,0.2,0.2,0.3,0.2c3,2.6,7.5,2.3,10.3-0.6l26-25.9
			c7.1,2.2,14.7-1.9,16.9-9c0.1-0.2,0.1-0.4,0.1-0.5c0.1-0.4-0.2-0.9-0.6-1c-0.2-0.1-0.4,0-0.6,0.1l-8.7,4.6l-7.5-4.8l0.3-8.9
			l8.7-4.6c0.4-0.2,0.6-0.7,0.3-1.2c-0.1-0.2-0.3-0.3-0.4-0.4c-7-2.6-14.8,1.1-17.4,8.1C29.2,122.5,29,124.7,29.3,126.8L29.3,126.8z
			 M4.9,156.4c1.4-1.4,3.6-1.5,5-0.1c1.4,1.4,1.5,3.6,0.1,5c-1.4,1.4-3.6,1.5-5,0.1c0,0,0,0,0,0C3.6,160.1,3.5,157.8,4.9,156.4z"/>
		
			<linearGradient id="SVGID_78_" gradientUnits="userSpaceOnUse" x1="136.4304" y1="59.7128" x2="160.8804" y2="59.7128" gradientTransform="matrix(1 0 0 -1 0 238)">
			<stop  offset="0" style="stop-color:#F5DEC3"/>
			<stop  offset="1" style="stop-color:#F0C77C"/>
		</linearGradient>
		<path class="st85" d="M160.2,185.3l-15.7-12.5c-1.3-1.4-2.7-2.6-4.3-3.6l-2.7-1.9c-0.3-0.2-0.7-0.1-0.9,0.2l0,0
			c-0.2,0.3-0.1,0.6,0.1,0.8l2.6,2.2c0,0-0.9,4.3,3.7,4.2l15.6,14.5h1.3l1-3.3L160.2,185.3z"/>
		<path class="st61" d="M163.9,185.4c0.9,0.8,2.1,0.9,3.1,0.3v-3.4h-3.1V185.4z"/>
		
			<linearGradient id="SVGID_79_" gradientUnits="userSpaceOnUse" x1="157.13" y1="5.9388" x2="162.7604" y2="5.9388" gradientTransform="matrix(1 0 0 -1 0 238)">
			<stop  offset="0" style="stop-color:#F5DEC3"/>
			<stop  offset="1" style="stop-color:#F0C77C"/>
		</linearGradient>
		<path class="st86" d="M162.8,220.4l-5.6,0.5c-0.1,7.6,0.4,15.1,1.4,22.6c0.7,0.4,1.5,0.3,2.2-0.1l0,0
			C160.4,232.7,162.8,220.4,162.8,220.4z"/>
		
			<linearGradient id="SVGID_80_" gradientUnits="userSpaceOnUse" x1="157.0204" y1="-5.22" x2="157.0204" y2="-8.28" gradientTransform="matrix(1 0 0 -1 0 238)">
			<stop  offset="0" style="stop-color:#3C2308"/>
			<stop  offset="1" style="stop-color:#4E3421"/>
		</linearGradient>
		<path class="st87" d="M158.5,243.5c-2.1,0.6-4.1,1.5-5.9,2.7h8.7c-0.3-0.9-0.5-1.9-0.6-2.8l0,0
			C160.1,243.8,159.2,243.9,158.5,243.5z"/>
		
			<linearGradient id="SVGID_81_" gradientUnits="userSpaceOnUse" x1="165.844" y1="5.9388" x2="171.4704" y2="5.9388" gradientTransform="matrix(1 0 0 -1 0 238)">
			<stop  offset="0" style="stop-color:#F5DEC3"/>
			<stop  offset="1" style="stop-color:#F0C77C"/>
		</linearGradient>
		<path class="st88" d="M171.5,220.4l-5.6,0.5c-0.1,7.6,0.8,15.2,2.8,22.6c0.7,0.4,1.5,0.3,2.2-0.1l0,0
			C170.5,235.7,170.7,228,171.5,220.4z"/>
		
			<linearGradient id="SVGID_82_" gradientUnits="userSpaceOnUse" x1="167.1104" y1="-5.22" x2="167.1104" y2="-8.28" gradientTransform="matrix(1 0 0 -1 0 238)">
			<stop  offset="0" style="stop-color:#3C2308"/>
			<stop  offset="1" style="stop-color:#4E3421"/>
		</linearGradient>
		<path class="st89" d="M168.6,243.5c-2.1,0.6-4.1,1.5-5.9,2.7h8.7c-0.3-0.9-0.5-1.9-0.6-2.8l0,0
			C170.2,243.8,169.3,243.9,168.6,243.5z"/>
		
			<linearGradient id="SVGID_83_" gradientUnits="userSpaceOnUse" x1="164.4004" y1="31.08" x2="164.4004" y2="15.52" gradientTransform="matrix(1 0 0 -1 0 238)">
			<stop  offset="0" style="stop-color:#3C2308"/>
			<stop  offset="1" style="stop-color:#4E3421"/>
		</linearGradient>
		<path class="st90" d="M171.4,205.9l1.4,15.1c0,0-9.9,2.1-16.9,0l2.4-15.6L171.4,205.9z"/>
		
			<linearGradient id="SVGID_84_" gradientUnits="userSpaceOnUse" x1="161.8304" y1="58.5594" x2="169.7704" y2="58.5594" gradientTransform="matrix(1 0 0 -1 0 238)">
			<stop  offset="0" style="stop-color:#F5DEC3"/>
			<stop  offset="1" style="stop-color:#F0C77C"/>
		</linearGradient>
		<path class="st91" d="M166.2,184c0.8-0.2,1.5-0.6,2.1-1.1c0.7-0.9,1.1-2,1.2-3.1c0.1-1.1,0.2-2.2,0.3-3.3c0.1-0.4,0-0.8-0.2-1.1
			c-0.3-0.4-0.8-0.7-1.3-0.7c-2.1-0.4-4.2-0.1-6.1,0.8c0.2,1.8,0.1,3.6-0.2,5.4c-0.3,0.9-0.2,1.8,0.1,2.6c0.4,0.6,1.1,1,1.9,1
			C164.7,184.4,165.5,184.3,166.2,184z"/>
		
			<linearGradient id="SVGID_85_" gradientUnits="userSpaceOnUse" x1="170.1174" y1="48.26" x2="170.1174" y2="65.57" gradientTransform="matrix(1 0 0 -1 0 238)">
			<stop  offset="0" style="stop-color:#3C2308"/>
			<stop  offset="1" style="stop-color:#4E3421"/>
		</linearGradient>
		<path class="st92" d="M172.7,180.6c-0.4-0.4-1.1-0.5-1.4-0.9s-0.1-1.1,0-1.7c0.3-1.8-1-3.6-2.8-3.9c-1-0.2-2,0.1-2.7,0.8
			c-0.6,1-0.5,2.3,0.1,3.2c0.2,0.3,0.4,0.5,0.6,0.8c0.2,0.4,0.3,0.8,0.3,1.2c0.1,0.9,0.3,1.7,0.4,2.6l0.5,3.6
			c0.1,0.6,0.2,1.3,0.4,1.9c0.5,1.2,1.6,2.2,2.9,2.5c0.9,0.3,1.9,0.1,2.7-0.3c0.8-0.5,1.3-1.4,1.2-2.4c-0.2-1.5-1.8-2.4-2-3.9
			c0-0.6,0-1.2,0.2-1.8C173.2,181.7,173,181.1,172.7,180.6z"/>
		
			<linearGradient id="SVGID_86_" gradientUnits="userSpaceOnUse" x1="164.6553" y1="23.5" x2="164.6553" y2="52.93" gradientTransform="matrix(1 0 0 -1 0 238)">
			<stop  offset="0" style="stop-color:#DC5D17"/>
			<stop  offset="1" style="stop-color:#E79A49"/>
		</linearGradient>
		<path class="st93" d="M160.2,185.3c0,0,3.1,0,3.8,0c1,0.5,2.1,0.6,3.1,0.3l5.1,2.1l-0.8,18.2c0,0-8.2,1.1-13.1-0.6l0.4-10.4
			c0,0-3.9-3.1,0.6-6.3L160.2,185.3z"/>
		<polygon class="st18" points="163.3,191.3 160.9,202.9 168.1,204.7 170.6,193.3 		"/>
		
			<linearGradient id="SVGID_87_" gradientUnits="userSpaceOnUse" x1="160.2954" y1="42.099" x2="175.0654" y2="42.099" gradientTransform="matrix(1 0 0 -1 0 238)">
			<stop  offset="0" style="stop-color:#F5DEC3"/>
			<stop  offset="1" style="stop-color:#F0C77C"/>
		</linearGradient>
		<path class="st94" d="M172.2,187.7c0,0-2.8,1.5-1.3,5.5l0.8,8.3l-7.8-1.2l-2.2-1.5l0.3-1.4c0,0-3.4,0.6-0.7,3.6l2,1.1l9,1.9
			c1.2,0.3,2.4-0.5,2.7-1.7c0-0.2,0.1-0.3,0.1-0.5C175.1,197.5,174.6,189.4,172.2,187.7z"/>
		
			<linearGradient id="SVGID_88_" gradientUnits="userSpaceOnUse" x1="158.9004" y1="64.4254" x2="171.2426" y2="64.4254" gradientTransform="matrix(1 0 0 -1 0 238)">
			<stop  offset="0" style="stop-color:#F0CD30"/>
			<stop  offset="1" style="stop-color:#E8AB28"/>
		</linearGradient>
		<path class="st95" d="M166.4,170.8c-2.3,0-4.3,1.5-4.9,3.7l-2-0.2c-0.3-0.1-0.6,0.2-0.7,0.5c-0.1,0.3,0.2,0.6,0.5,0.7
			c0,0,0.1,0,0.1,0l1.9,0.1c3.3,0.4,6.6,0.7,9.9,0.9c0-0.1,0-0.3,0-0.5C171.2,173.2,169.1,170.9,166.4,170.8z"/>
	</g>
</g>
</svg>
