<svg xmlns="http://www.w3.org/2000/svg" viewBox="0 0 30.83 28"><defs><style>.cls-1{fill:#09c;}</style></defs><title>CMMS The right CMMS Promise Buy Logo</title><g id="Layer_2" data-name="Layer 2"><g id="Layer_1-2" data-name="Layer 1"><path class="cls-1" d="M30.35,3.71A2,2,0,0,0,28.82,3H6.31L6.12,1.7a2,2,0,0,0-2-1.7H1A1,1,0,0,0,1,2H4.14L6.88,20.3a2,2,0,0,0,2,1.7H28a1,1,0,0,0,0-2H8.86l-.45-3H27.15a2,2,0,0,0,2-1.67l1.66-10A2,2,0,0,0,30.35,3.71ZM27.15,15h-19L6.61,5H28.82Z"/><circle class="cls-1" cx="11" cy="26" r="2"/><circle class="cls-1" cx="24" cy="26" r="2"/></g></g></svg>