<svg xmlns="http://www.w3.org/2000/svg" xmlns:xlink="http://www.w3.org/1999/xlink" viewBox="0 0 344.73 246.24"><defs><style>.cls-1{opacity:0.31;}.cls-2{opacity:0.5;}.cls-3{fill:url(#linear-gradient);}.cls-4{fill:#5d9dc5;opacity:0.8;isolation:isolate;}.cls-5{fill:url(#linear-gradient-2);}.cls-6{fill:url(#linear-gradient-3);}.cls-7{fill:url(#linear-gradient-4);}.cls-8{fill:url(#linear-gradient-5);}.cls-9{fill:url(#linear-gradient-6);}.cls-10{fill:url(#linear-gradient-7);}.cls-11{fill:url(#linear-gradient-8);}.cls-12{fill:url(#linear-gradient-10);}.cls-13{fill:url(#linear-gradient-11);}.cls-14{fill:url(#linear-gradient-12);}.cls-15{fill:url(#linear-gradient-13);}.cls-16{fill:url(#linear-gradient-14);}.cls-17{fill:url(#linear-gradient-15);}.cls-18{fill:#fff;}.cls-19{fill:url(#linear-gradient-16);}.cls-20{fill:url(#linear-gradient-17);}.cls-21{fill:url(#linear-gradient-18);}.cls-22{fill:url(#linear-gradient-19);}.cls-23{fill:url(#linear-gradient-20);}.cls-24{fill:url(#linear-gradient-21);}.cls-25{fill:url(#linear-gradient-22);}.cls-26{fill:url(#linear-gradient-24);}.cls-27{fill:url(#linear-gradient-25);}.cls-28{fill:url(#linear-gradient-26);}.cls-29{fill:url(#linear-gradient-27);}.cls-30{fill:url(#linear-gradient-28);}.cls-31{fill:url(#linear-gradient-29);}.cls-32{fill:url(#linear-gradient-30);}.cls-33{fill:url(#linear-gradient-31);}.cls-34{fill:url(#linear-gradient-32);}.cls-35{fill:url(#linear-gradient-33);}.cls-36{fill:url(#linear-gradient-34);}.cls-37{fill:url(#linear-gradient-35);}.cls-38{fill:url(#linear-gradient-36);}.cls-39{fill:#9dc44d;}.cls-40{fill:url(#linear-gradient-37);}.cls-41{fill:url(#linear-gradient-38);}.cls-42{fill:url(#linear-gradient-39);}.cls-43{fill:url(#linear-gradient-40);}.cls-44{fill:#e5e5e6;}.cls-45{fill:url(#linear-gradient-41);}.cls-46{fill:url(#linear-gradient-42);}.cls-47{fill:url(#linear-gradient-43);}.cls-48{fill:url(#linear-gradient-44);}.cls-49{fill:url(#linear-gradient-45);}.cls-50{fill:url(#linear-gradient-46);}.cls-51{fill:url(#linear-gradient-47);}.cls-52{fill:url(#linear-gradient-48);}.cls-53{fill:url(#linear-gradient-49);}.cls-54{fill:url(#linear-gradient-50);}.cls-55{fill:url(#linear-gradient-51);}.cls-56{fill:url(#linear-gradient-52);}.cls-57{fill:url(#linear-gradient-53);}.cls-58{fill:url(#linear-gradient-54);}.cls-59{fill:url(#linear-gradient-55);}.cls-60{fill:#d6ac63;}.cls-61{fill:#547fb9;}.cls-62{fill:url(#linear-gradient-56);}.cls-63{fill:url(#linear-gradient-57);}.cls-64{fill:url(#linear-gradient-58);}.cls-65{fill:url(#linear-gradient-59);}.cls-66{fill:url(#linear-gradient-60);}.cls-67{fill:url(#linear-gradient-61);}.cls-68{fill:url(#linear-gradient-62);}.cls-69{fill:url(#linear-gradient-63);}.cls-70{fill:url(#linear-gradient-64);}.cls-71{fill:url(#linear-gradient-65);}.cls-72{fill:url(#linear-gradient-66);}.cls-73{fill:url(#linear-gradient-67);}.cls-74{fill:url(#linear-gradient-68);}.cls-75{fill:url(#linear-gradient-69);}.cls-76{fill:url(#linear-gradient-70);}.cls-77{fill:url(#linear-gradient-71);}.cls-78{fill:url(#linear-gradient-72);}.cls-79{fill:url(#linear-gradient-73);}.cls-80{fill:url(#linear-gradient-74);}.cls-81{fill:url(#linear-gradient-75);}.cls-82{fill:url(#linear-gradient-76);}.cls-83{fill:url(#linear-gradient-77);}.cls-84{fill:url(#linear-gradient-78);}.cls-85{fill:url(#linear-gradient-79);}.cls-86{fill:url(#linear-gradient-80);}.cls-87{fill:url(#linear-gradient-81);}.cls-88{fill:url(#linear-gradient-82);}.cls-89{fill:url(#linear-gradient-83);}.cls-90{fill:url(#linear-gradient-84);}.cls-91{fill:url(#linear-gradient-85);}.cls-92{fill:url(#linear-gradient-86);}.cls-93{fill:url(#linear-gradient-87);}.cls-94{fill:url(#linear-gradient-88);}</style><linearGradient id="linear-gradient" x1="212.03" y1="154.79" x2="212.03" y2="238" gradientTransform="matrix(1, 0, 0, -1, 0, 238)" gradientUnits="userSpaceOnUse"><stop offset="0" stop-color="#5689ac"/><stop offset="1" stop-color="#72bfd0"/></linearGradient><linearGradient id="linear-gradient-2" x1="176.89" y1="49.75" x2="176.89" y2="171.12" gradientTransform="matrix(1, 0, 0, -1, 0, 238)" gradientUnits="userSpaceOnUse"><stop offset="0" stop-color="#7fa0c1"/><stop offset="1" stop-color="#c6e3f0"/></linearGradient><linearGradient id="linear-gradient-3" x1="176.89" y1="52.8" x2="176.89" y2="29.67" xlink:href="#linear-gradient-2"/><linearGradient id="linear-gradient-4" x1="176.9" y1="8.93" x2="176.9" y2="36.95" xlink:href="#linear-gradient-2"/><linearGradient id="linear-gradient-5" x1="176.89" y1="37.73" x2="176.89" y2="162.47" gradientTransform="matrix(1, 0, 0, -1, 0, 238)" gradientUnits="userSpaceOnUse"><stop offset="0" stop-color="#394967"/><stop offset="1" stop-color="#232d4a"/></linearGradient><linearGradient id="linear-gradient-6" x1="102.02" y1="70.42" x2="102.02" y2="140.22" gradientTransform="matrix(1, 0, 0, -1, 0, 238)" gradientUnits="userSpaceOnUse"><stop offset="0" stop-color="#c6d4e5"/><stop offset="1" stop-color="#fff"/></linearGradient><linearGradient id="linear-gradient-7" x1="189.59" y1="70.42" x2="189.59" y2="140.22" xlink:href="#linear-gradient-6"/><linearGradient id="linear-gradient-8" x1="174.67" y1="134.43" x2="174.67" y2="122.26" gradientTransform="matrix(1, 0, 0, -1, 0, 238)" gradientUnits="userSpaceOnUse"><stop offset="0" stop-color="#f0cd30"/><stop offset="1" stop-color="#e8ab28"/></linearGradient><linearGradient id="linear-gradient-10" x1="115.17" y1="70.19" x2="115.17" y2="147.69" xlink:href="#linear-gradient-6"/><linearGradient id="linear-gradient-11" x1="203.41" y1="29.84" x2="203.41" y2="105.52" xlink:href="#linear-gradient"/><linearGradient id="linear-gradient-12" x1="155.86" y1="207.89" x2="186.58" y2="207.89" xlink:href="#linear-gradient-8"/><linearGradient id="linear-gradient-13" x1="179.83" y1="187.56" x2="159.45" y2="187.56" xlink:href="#linear-gradient-5"/><linearGradient id="linear-gradient-14" x1="179.83" y1="181.74" x2="159.45" y2="181.74" xlink:href="#linear-gradient-5"/><linearGradient id="linear-gradient-15" x1="179.79" y1="174.07" x2="159.51" y2="174.07" xlink:href="#linear-gradient-5"/><linearGradient id="linear-gradient-16" x1="294.52" y1="123.29" x2="294.52" y2="116.12" xlink:href="#linear-gradient-5"/><linearGradient id="linear-gradient-17" x1="294.52" y1="124.03" x2="294.52" y2="128.65" xlink:href="#linear-gradient"/><linearGradient id="linear-gradient-18" x1="306.59" y1="123.29" x2="306.59" y2="116.12" gradientTransform="matrix(0.61, 0.79, 0.79, -0.61, 26.36, -50.87)" xlink:href="#linear-gradient-5"/><linearGradient id="linear-gradient-19" x1="281.61" y1="123.29" x2="281.61" y2="116.12" gradientTransform="matrix(0.76, 0.65, 0.65, -0.76, -8.02, 25.62)" xlink:href="#linear-gradient-5"/><linearGradient id="linear-gradient-20" x1="294.52" y1="83.14" x2="294.52" y2="120.82" xlink:href="#linear-gradient"/><linearGradient id="linear-gradient-21" x1="294.52" y1="115.66" x2="294.52" y2="97.89" xlink:href="#linear-gradient-5"/><linearGradient id="linear-gradient-22" x1="307.16" y1="115.66" x2="307.16" y2="97.89" xlink:href="#linear-gradient-5"/><linearGradient id="linear-gradient-24" x1="281.88" y1="115.66" x2="281.88" y2="97.89" xlink:href="#linear-gradient-5"/><linearGradient id="linear-gradient-25" x1="296.66" y1="115.66" x2="296.66" y2="97.89" xlink:href="#linear-gradient-5"/><linearGradient id="linear-gradient-26" x1="262.9" y1="180.53" x2="292.92" y2="180.53" gradientTransform="matrix(0.59, 0.81, 0.81, -0.59, -31.28, -61.79)" gradientUnits="userSpaceOnUse"><stop offset="0" stop-color="#f0cd30"/><stop offset="1" stop-color="#f2d84e"/></linearGradient><linearGradient id="linear-gradient-27" x1="258.57" y1="184.35" x2="286.74" y2="184.35" gradientTransform="matrix(0.59, 0.81, 0.81, -0.59, -36.56, -59.1)" xlink:href="#linear-gradient-8"/><linearGradient id="linear-gradient-28" x1="269.08" y1="176.74" x2="297.25" y2="176.74" gradientTransform="matrix(0.59, 0.81, 0.81, -0.59, -26.04, -64.49)" xlink:href="#linear-gradient-8"/><linearGradient id="linear-gradient-29" x1="282.42" y1="199.63" x2="301.04" y2="199.63" gradientTransform="matrix(0.59, 0.81, 0.81, -0.59, -41.03, -80.89)" gradientUnits="userSpaceOnUse"><stop offset="0" stop-color="#f5dec3"/><stop offset="1" stop-color="#f0c77c"/></linearGradient><linearGradient id="linear-gradient-30" x1="296.72" y1="196.88" x2="296.72" y2="216.9" gradientTransform="matrix(1, 0, 0, -1, 0, 238)" gradientUnits="userSpaceOnUse"><stop offset="0" stop-color="#dc5d17"/><stop offset="1" stop-color="#e79a49"/></linearGradient><linearGradient id="linear-gradient-31" x1="254.34" y1="158.75" x2="273.51" y2="158.75" gradientTransform="matrix(1, 0, 0, -1, 0, 238)" xlink:href="#linear-gradient-29"/><linearGradient id="linear-gradient-32" x1="261.28" y1="157.56" x2="256.2" y2="150.57" gradientTransform="matrix(1, 0, 0, -1, 0, 238)" gradientUnits="userSpaceOnUse"><stop offset="0" stop-color="#3c2308"/><stop offset="1" stop-color="#4e3421"/></linearGradient><linearGradient id="linear-gradient-33" x1="143.55" y1="85.81" x2="143.55" y2="46.94" xlink:href="#linear-gradient-5"/><linearGradient id="linear-gradient-34" x1="143.55" y1="76.55" x2="143.55" y2="90.86" gradientTransform="matrix(1, 0, 0, -1, 0, 238)" gradientUnits="userSpaceOnUse"><stop offset="0" stop-color="#7b7b7b"/><stop offset="1" stop-color="#ededed"/></linearGradient><linearGradient id="linear-gradient-35" x1="114.36" y1="87.06" x2="114.36" y2="90.82" xlink:href="#linear-gradient-30"/><linearGradient id="linear-gradient-36" x1="121.72" y1="91.29" x2="121.72" y2="87.76" xlink:href="#linear-gradient-8"/><linearGradient id="linear-gradient-37" x1="206.4" y1="66.43" x2="206.4" y2="-30.24" xlink:href="#linear-gradient-34"/><linearGradient id="linear-gradient-38" x1="270.26" y1="66.43" x2="270.26" y2="-30.24" xlink:href="#linear-gradient-34"/><linearGradient id="linear-gradient-39" x1="199.52" y1="-22.72" x2="199.52" y2="65.87" gradientTransform="matrix(1, 0, 0, -1, 0, 238)" gradientUnits="userSpaceOnUse"><stop offset="0" stop-color="#9b9b9b"/><stop offset="1" stop-color="#ededed"/></linearGradient><linearGradient id="linear-gradient-40" x1="263.37" y1="-22.72" x2="263.37" y2="65.87" xlink:href="#linear-gradient-39"/><linearGradient id="linear-gradient-41" x1="202.01" y1="62.57" x2="202.01" y2="79.63" xlink:href="#linear-gradient-30"/><linearGradient id="linear-gradient-42" x1="220.96" y1="62.57" x2="220.96" y2="79.63" xlink:href="#linear-gradient-30"/><linearGradient id="linear-gradient-43" x1="244.01" y1="62.57" x2="244.01" y2="79.63" xlink:href="#linear-gradient-30"/><linearGradient id="linear-gradient-44" x1="261.92" y1="62.57" x2="261.92" y2="79.63" xlink:href="#linear-gradient-30"/><linearGradient id="linear-gradient-45" x1="202.01" y1="34.02" x2="202.01" y2="51.08" xlink:href="#linear-gradient-30"/><linearGradient id="linear-gradient-46" x1="220.96" y1="34.02" x2="220.96" y2="51.08" xlink:href="#linear-gradient-30"/><linearGradient id="linear-gradient-47" x1="244.01" y1="34.02" x2="244.01" y2="51.08" xlink:href="#linear-gradient-30"/><linearGradient id="linear-gradient-48" x1="261.92" y1="34.02" x2="261.92" y2="51.08" xlink:href="#linear-gradient-30"/><linearGradient id="linear-gradient-49" x1="209.45" y1="56.83" x2="253.43" y2="56.83" xlink:href="#linear-gradient-8"/><linearGradient id="linear-gradient-50" x1="109.36" y1="160.14" x2="109.36" y2="186.49" xlink:href="#linear-gradient"/><linearGradient id="linear-gradient-51" x1="95.42" y1="112.7" x2="95.42" y2="153.31" xlink:href="#linear-gradient-30"/><linearGradient id="linear-gradient-52" x1="84.56" y1="12.22" x2="84.56" y2="52.5" xlink:href="#linear-gradient-30"/><linearGradient id="linear-gradient-53" x1="84.56" y1="8.14" x2="84.56" y2="12.22" xlink:href="#linear-gradient-30"/><linearGradient id="linear-gradient-54" x1="302.23" y1="-1.84" x2="302.23" y2="41.44" xlink:href="#linear-gradient-30"/><linearGradient id="linear-gradient-55" x1="302.23" y1="-6.23" x2="302.23" y2="-1.84" xlink:href="#linear-gradient-30"/><linearGradient id="linear-gradient-56" x1="234.75" y1="151.26" x2="234.75" y2="159.32" xlink:href="#linear-gradient-30"/><linearGradient id="linear-gradient-57" x1="201.29" y1="212.74" x2="209.78" y2="212.74" gradientTransform="matrix(1, 0, 0, -1, 0, 238)" xlink:href="#linear-gradient-29"/><linearGradient id="linear-gradient-58" x1="202.71" y1="207.28" x2="202.71" y2="214.56" xlink:href="#linear-gradient-5"/><linearGradient id="linear-gradient-59" x1="205.73" y1="180.44" x2="205.73" y2="209.9" xlink:href="#linear-gradient-30"/><linearGradient id="linear-gradient-60" x1="214.49" y1="180.44" x2="214.49" y2="209.9" xlink:href="#linear-gradient-30"/><linearGradient id="linear-gradient-61" x1="198.59" y1="180.44" x2="198.59" y2="209.9" xlink:href="#linear-gradient-30"/><linearGradient id="linear-gradient-62" x1="203.72" y1="182.37" x2="207.66" y2="182.37" gradientTransform="matrix(1, 0, 0, -1, 0, 238)" xlink:href="#linear-gradient-29"/><linearGradient id="linear-gradient-63" x1="205.23" y1="186.12" x2="224.35" y2="186.12" xlink:href="#linear-gradient-39"/><linearGradient id="linear-gradient-64" x1="212.1" y1="0.3" x2="212.1" y2="34.48" gradientTransform="matrix(1, 0, 0, -1, 0, 238)" gradientUnits="userSpaceOnUse"><stop offset="0" stop-color="#6091d5"/><stop offset="1" stop-color="#3f6096"/></linearGradient><linearGradient id="linear-gradient-65" x1="221.75" y1="151.26" x2="221.75" y2="158.01" xlink:href="#linear-gradient-30"/><linearGradient id="linear-gradient-66" x1="200.32" y1="218.91" x2="212.04" y2="218.91" xlink:href="#linear-gradient-8"/><linearGradient id="linear-gradient-67" x1="24.36" y1="-4.47" x2="24.36" y2="26.06" xlink:href="#linear-gradient-64"/><linearGradient id="linear-gradient-68" x1="30.79" y1="-1.32" x2="30.79" y2="-6.51" xlink:href="#linear-gradient-5"/><linearGradient id="linear-gradient-69" x1="18.27" y1="0.3" x2="18.27" y2="34.48" gradientTransform="matrix(1, 0, 0, -1, 0, 238)" gradientUnits="userSpaceOnUse"><stop offset="0" stop-color="#6091d5"/><stop offset="1" stop-color="#4868a4"/></linearGradient><linearGradient id="linear-gradient-70" x1="16.81" y1="-1.32" x2="16.81" y2="-6.51" xlink:href="#linear-gradient-5"/><linearGradient id="linear-gradient-71" x1="16.33" y1="33.83" x2="16.33" y2="80.72" xlink:href="#linear-gradient"/><linearGradient id="linear-gradient-72" x1="21.01" y1="82.63" x2="25.06" y2="82.63" gradientTransform="matrix(1, 0, 0, -1, 0, 238)" xlink:href="#linear-gradient-29"/><linearGradient id="linear-gradient-73" x1="0.05" y1="75.18" x2="4.53" y2="75.18" gradientTransform="matrix(1, 0, 0, -1, 0, 238)" xlink:href="#linear-gradient-29"/><linearGradient id="linear-gradient-74" x1="12.44" y1="61.71" x2="23.22" y2="61.71" gradientTransform="matrix(1, 0, 0, -1, 0, 238)" xlink:href="#linear-gradient-29"/><linearGradient id="linear-gradient-75" x1="16.41" y1="56.23" x2="14.43" y2="62.19" xlink:href="#linear-gradient-5"/><linearGradient id="linear-gradient-76" x1="11.11" y1="66.09" x2="21.95" y2="66.09" xlink:href="#linear-gradient-8"/><linearGradient id="linear-gradient-77" x1="-14.98" y1="51.51" x2="51.89" y2="122.67" xlink:href="#linear-gradient-34"/><linearGradient id="linear-gradient-78" x1="136.43" y1="59.71" x2="160.88" y2="59.71" gradientTransform="matrix(1, 0, 0, -1, 0, 238)" xlink:href="#linear-gradient-29"/><linearGradient id="linear-gradient-79" x1="157.13" y1="5.94" x2="162.76" y2="5.94" gradientTransform="matrix(1, 0, 0, -1, 0, 238)" xlink:href="#linear-gradient-29"/><linearGradient id="linear-gradient-80" x1="157.02" y1="-5.22" x2="157.02" y2="-8.28" xlink:href="#linear-gradient-32"/><linearGradient id="linear-gradient-81" x1="165.84" y1="5.94" x2="171.47" y2="5.94" gradientTransform="matrix(1, 0, 0, -1, 0, 238)" xlink:href="#linear-gradient-29"/><linearGradient id="linear-gradient-82" x1="167.11" y1="-5.22" x2="167.11" y2="-8.28" xlink:href="#linear-gradient-32"/><linearGradient id="linear-gradient-83" x1="164.4" y1="31.08" x2="164.4" y2="15.52" xlink:href="#linear-gradient-32"/><linearGradient id="linear-gradient-84" x1="161.83" y1="58.56" x2="169.77" y2="58.56" gradientTransform="matrix(1, 0, 0, -1, 0, 238)" xlink:href="#linear-gradient-29"/><linearGradient id="linear-gradient-85" x1="170.12" y1="48.26" x2="170.12" y2="65.57" xlink:href="#linear-gradient-32"/><linearGradient id="linear-gradient-86" x1="164.66" y1="23.5" x2="164.66" y2="52.93" xlink:href="#linear-gradient-30"/><linearGradient id="linear-gradient-87" x1="160.3" y1="42.1" x2="175.07" y2="42.1" gradientTransform="matrix(1, 0, 0, -1, 0, 238)" xlink:href="#linear-gradient-29"/><linearGradient id="linear-gradient-88" x1="158.9" y1="64.43" x2="171.24" y2="64.43" xlink:href="#linear-gradient-8"/></defs><title>CMMS-The-right-cmms-promise-maintenance-image</title><g id="Layer_2" data-name="Layer 2"><g id="Layer_1-2" data-name="Layer 1"><g id="OBJECTS"><g class="cls-1"><g class="cls-2"><path class="cls-3" d="M179.45,49.16a34.41,34.41,0,0,0,1.76,5.52l-.21.26-5.87,7.63a42.72,42.72,0,0,0,5.57,7.66L189.81,67l.31-.11a32.94,32.94,0,0,0,4.66,3.38v.34l-.27,9.67a42.48,42.48,0,0,0,9,2.93l5.46-8,.19-.29c1,.08,1.92.14,2.89.14s1.93-.06,2.89-.14l.19.29,5.46,8a42.48,42.48,0,0,0,9-2.93l-.27-9.67v-.34A33.62,33.62,0,0,0,234,66.89l.31.11,9.11,3.24A42.72,42.72,0,0,0,249,62.58l-5.93-7.64-.2-.26a33.44,33.44,0,0,0,1.76-5.52l.34-.1,9.25-2.72a41.65,41.65,0,0,0,0-9.47L245,34.14l-.34-.1a32.41,32.41,0,0,0-1.76-5.51l.2-.27,5.88-7.63A42.29,42.29,0,0,0,243.4,13l-9.11,3.24-.31.11A33.62,33.62,0,0,0,229.31,13V12.6l.27-9.66a41.94,41.94,0,0,0-9-2.94l-5.46,8-.19.29c-1-.08-1.92-.15-2.89-.15s-1.93.07-2.89.15L209,8l-5.46-8a41.94,41.94,0,0,0-9,2.94l.27,9.66v.34a35.92,35.92,0,0,0-4.66,3.38l-.32-.11L180.7,13a42.72,42.72,0,0,0-5.57,7.66l5.92,7.6.21.27A33.07,33.07,0,0,0,179.45,34l-.34.1-9.25,2.73a41.65,41.65,0,0,0,0,9.47L179.11,49Zm15.26-7.56a17.37,17.37,0,1,1,0,.06V41.6Z"/></g><path class="cls-4" d="M233.49,124.48l-11.79,6.67a62.2,62.2,0,0,0,3.13,9.69l13.49-1.54a50.23,50.23,0,0,0,2.53,4.38l-8.06,10.9a61.2,61.2,0,0,0,6.82,7.57l11.68-6.88a49.88,49.88,0,0,0,4.09,3l-2.94,13.26a63.45,63.45,0,0,0,9.31,4.14l7.87-11q2.47.65,5,1.05l2.7,13.27c1.69.14,3.38.22,5.1.22s3.41-.08,5.1-.22l2.7-13.27q2.5-.41,4.95-1.05l7.87,11a63.45,63.45,0,0,0,9.31-4.14l-2.94-13.26a49.88,49.88,0,0,0,4.09-3l11.68,6.88a61.2,61.2,0,0,0,6.82-7.57l-8.06-10.9a50.23,50.23,0,0,0,2.53-4.38L340,140.84a62.2,62.2,0,0,0,3.13-9.69l-11.8-6.67a49.57,49.57,0,0,0,.53-5l12.91-4.07a61.72,61.72,0,0,0-1.05-10.14L330.19,104q-.66-2.44-1.56-4.81l10.16-9a63,63,0,0,0-5.11-8.82l-12.86,4.31a48.2,48.2,0,0,0-3.38-3.76l5.61-12.36a63.66,63.66,0,0,0-8.23-6l-10,9.17c-1.5-.76-3.05-1.45-4.62-2.06l.12-13.57a63,63,0,0,0-10-2.1l-5.4,12.43c-.84,0-1.68-.07-2.53-.07s-1.69,0-2.53.07L274.44,55a63.26,63.26,0,0,0-10,2.1l.12,13.57a46.45,46.45,0,0,0-4.62,2.06l-10-9.17a63.66,63.66,0,0,0-8.23,6l5.62,12.33A48.2,48.2,0,0,0,244,85.65l-12.86-4.31A63,63,0,0,0,226,90.16l10.16,9q-.9,2.37-1.56,4.81l-13.49,1.3a62.22,62.22,0,0,0-1,10.1L233,119.44A49.44,49.44,0,0,0,233.49,124.48Zm23.74-7.69a25.14,25.14,0,1,1,25.14,25.14h0a25.15,25.15,0,0,1-25.14-25.14Z"/></g><rect class="cls-5" x="70.11" y="66.88" width="213.55" height="121.37" rx="3.22"/><polygon class="cls-6" points="197.82 188.25 155.96 188.25 150.54 209.02 203.24 209.02 197.82 188.25"/><path class="cls-7" d="M226.58,219.73H127.2a.87.87,0,0,1-.85-.89.84.84,0,0,1,.35-.68l4.5-3.27A30.92,30.92,0,0,1,149.31,209h55.16a30.86,30.86,0,0,1,18.11,5.87l4.5,3.27a.87.87,0,0,1,.23,1.21A.88.88,0,0,1,226.58,219.73Z"/><rect class="cls-8" x="75.87" y="71.72" width="202.04" height="109.54"/><path class="cls-9" d="M110.59,90H93.45a3.28,3.28,0,0,1-3.29-3.27h0a3.29,3.29,0,0,1,3.29-3.29h17.14a3.29,3.29,0,0,1,3.29,3.29h0A3.3,3.3,0,0,1,110.59,90Z"/><path class="cls-10" d="M123.41,90h132.3a3.28,3.28,0,0,0,3.34-3.22v0h0a3.29,3.29,0,0,0-3.29-3.29H123.41a3.28,3.28,0,0,0-3.28,3.28h0A3.28,3.28,0,0,0,123.41,90Z"/><rect class="cls-11" x="90.16" y="101.71" width="169.01" height="5.16"/><rect class="cls-11" x="90.16" y="111.39" width="169.01" height="5.16"/><rect class="cls-12" x="90.16" y="123.38" width="50.02" height="42.19"/><rect class="cls-13" x="147.64" y="123.38" width="111.53" height="42.19"/><path class="cls-14" d="M186.58,27.59a15.36,15.36,0,1,0-27.2,9.77A16.57,16.57,0,0,1,163.14,48h16.17a17,17,0,0,1,3.87-10.72A15.38,15.38,0,0,0,186.58,27.59Z"/><path class="cls-15" d="M178.88,48H163.57a2.45,2.45,0,0,0-2.45,2.45h0a2.45,2.45,0,0,0,2.45,2.44h15.31a2.45,2.45,0,0,0,2.45-2.44h0A2.45,2.45,0,0,0,178.88,48Z"/><path class="cls-16" d="M178.88,53.81H163.57a2.45,2.45,0,0,0-2.45,2.45h0a2.45,2.45,0,0,0,2.45,2.44h15.31a2.45,2.45,0,0,0,2.45-2.44h0A2.45,2.45,0,0,0,178.88,53.81Z"/><path class="cls-17" d="M178.36,60a.73.73,0,0,1,.71.75v.06a7.89,7.89,0,0,1-15.69,0A.74.74,0,0,1,164,60h14.34Z"/><path class="cls-18" d="M176.32,28.29h-.09a3.15,3.15,0,0,0-3.18,3.1v2.48h-3.73V31.43a3.15,3.15,0,0,0-3.14-3.14h-.09a3.14,3.14,0,0,0,0,6.28h2.54V48h.69V34.57h3.73V48h.69V34.57h2.54a3.14,3.14,0,0,0,0-6.28Zm-7.65,5.58h-2.54a2.44,2.44,0,1,1,0-4.88h.09a2.45,2.45,0,0,1,2.45,2.44Zm7.65,0h-2.54V31.43A2.45,2.45,0,0,1,176.23,29h.09a2.44,2.44,0,0,1,0,4.88Z"/><rect class="cls-19" x="292.37" y="113.97" width="4.29" height="4.56"/><rect class="cls-20" x="290.93" y="109.35" width="7.17" height="4.62"/><rect class="cls-21" x="304.32" y="118.19" width="4.56" height="4.29" transform="translate(24.25 289.92) rotate(-52.42)"/><rect class="cls-22" x="279.45" y="118.76" width="4.29" height="4.56" transform="translate(-10.67 213.36) rotate(-40.79)"/><circle class="cls-23" cx="294.52" cy="136.02" r="18.84"/><circle class="cls-18" cx="294.52" cy="136.02" r="15.58" transform="translate(-9.92 248.1) rotate(-45)"/><path class="cls-24" d="M294.52,125.52a.7.7,0,0,1-.7-.7h0v-2.88a.7.7,0,1,1,1.4,0v2.88A.72.72,0,0,1,294.52,125.52Z"/><path class="cls-25" d="M308.6,136.72h-2.88a.7.7,0,0,1,0-1.4h2.88a.7.7,0,1,1,0,1.4Z"/><path class="cls-24" d="M294.52,150.8a.7.7,0,0,1-.7-.7h0v-2.88a.7.7,0,0,1,1.4,0v2.88A.7.7,0,0,1,294.52,150.8Z"/><path class="cls-26" d="M283.32,136.72h-2.88a.7.7,0,1,1,0-1.4h2.88a.7.7,0,1,1,0,1.4Z"/><path class="cls-27" d="M294.52,136.72h-.08a.7.7,0,0,1-.47-.26l-5.3-6.75a.7.7,0,0,1,.09-1h0a.71.71,0,0,1,1,.12h0l4.87,6.19,9-7.35a.7.7,0,1,1,.92,1.06l0,0-9.6,7.8A.71.71,0,0,1,294.52,136.72Z"/><rect class="cls-28" x="257.59" y="53.65" width="40.66" height="7.63" transform="translate(68.41 248.89) rotate(-54.1)"/><rect class="cls-29" x="252.32" y="50.99" width="40.66" height="5.34" transform="translate(69.31 243.05) rotate(-54.1)"/><rect class="cls-30" x="262.84" y="58.59" width="40.66" height="5.34" transform="translate(67.51 254.71) rotate(-54.1)"/><rect class="cls-31" x="288.51" y="29.21" width="6.46" height="18.31" transform="translate(89.59 252.19) rotate(-54.1)"/><path class="cls-32" d="M301,41.11,286.21,30.38h0l5.38-7.44a4.46,4.46,0,0,1,6.21-1l7.6,5.5a4.46,4.46,0,0,1,1,6.23l-5.35,7.4Z"/><polygon class="cls-33" points="254.34 90.02 273.51 79.37 258.47 68.48 254.34 90.02"/><polygon class="cls-34" points="256.24 80.11 254.34 90.02 263.16 85.12 256.24 80.11"/><rect class="cls-35" x="109.54" y="144.84" width="68.02" height="48.63" rx="2.61"/><path class="cls-36" d="M177.55,153.29v-5.84a2.59,2.59,0,0,0-2.59-2.61H112.15a2.59,2.59,0,0,0-2.61,2.59v5.86Z"/><path class="cls-37" d="M116.24,149.06a1.88,1.88,0,1,1-1.88-1.88,1.88,1.88,0,0,1,1.88,1.88Z"/><path class="cls-38" d="M123.6,149.06a1.88,1.88,0,1,1-1.88-1.88,1.88,1.88,0,0,1,1.88,1.88Z"/><path class="cls-39" d="M131,149.06a1.88,1.88,0,1,1-1.88-1.88,1.88,1.88,0,0,1,1.88,1.88Z"/><path class="cls-18" d="M172.78,172.82l-9.47-9.48a1,1,0,1,0-1.76,1,1.05,1.05,0,0,0,.41.4l8.8,8.8-8.8,8.8a.94.94,0,0,0,0,1.33l0,0a1,1,0,0,0,.67.28,1,1,0,0,0,.68-.28l9.47-9.48a.93.93,0,0,0,.06-1.32A.09.09,0,0,0,172.78,172.82Z"/><path class="cls-18" d="M125.13,163.34a1,1,0,0,0-1.35,0l-9.47,9.48a.94.94,0,0,0,0,1.33l0,0,9.47,9.48a1,1,0,0,0,.68.28,1,1,0,0,0,.67-.28.94.94,0,0,0,0-1.33l0,0-8.8-8.8,8.8-8.8A1,1,0,0,0,125.13,163.34Z"/><path class="cls-18" d="M141.14,161.26a1,1,0,0,0-1.26.48l-10.62,23.68a1,1,0,0,0,.48,1.27,1,1,0,0,0,.39.08,1,1,0,0,0,.88-.56l10.62-23.69A1,1,0,0,0,141.14,161.26Z"/><path class="cls-18" d="M139.73,176.68a1.6,1.6,0,1,0,1.47,1.47A1.6,1.6,0,0,0,139.73,176.68Z"/><path class="cls-18" d="M146.1,176.68a1.6,1.6,0,1,0,1.47,1.47A1.6,1.6,0,0,0,146.1,176.68Z"/><path class="cls-18" d="M152.47,176.68a1.6,1.6,0,1,0,1.47,1.47A1.6,1.6,0,0,0,152.47,176.68Z"/><polygon class="cls-40" points="216.94 227.64 209.61 227.64 195.85 158.37 203.18 158.37 216.94 227.64"/><polygon class="cls-41" points="273.47 227.64 280.8 227.64 267.04 158.37 259.71 158.37 273.47 227.64"/><rect class="cls-42" x="195.85" y="158.37" width="7.33" height="69.27"/><rect class="cls-43" x="259.7" y="158.37" width="7.33" height="69.27"/><rect class="cls-44" x="191.63" y="158.37" width="79.63" height="17.06"/><polygon class="cls-45" points="201.79 158.37 191.62 167.81 191.62 175.43 194.04 175.43 212.4 158.37 201.79 158.37"/><polygon class="cls-46" points="224.84 158.37 206.47 175.43 217.08 175.43 235.45 158.37 224.84 158.37"/><polygon class="cls-47" points="247.89 158.37 229.52 175.43 240.14 175.43 258.5 158.37 247.89 158.37"/><polygon class="cls-48" points="271.26 158.37 270.94 158.37 252.58 175.43 263.19 175.43 271.26 167.93 271.26 158.37"/><rect class="cls-44" x="191.63" y="186.92" width="79.63" height="17.06"/><polygon class="cls-49" points="201.79 186.92 191.62 196.36 191.62 203.98 194.04 203.98 212.4 186.92 201.79 186.92"/><polygon class="cls-50" points="224.84 186.92 206.47 203.98 217.08 203.98 235.45 186.92 224.84 186.92"/><polygon class="cls-51" points="247.89 186.92 229.52 203.98 240.14 203.98 258.5 186.92 247.89 186.92"/><polygon class="cls-52" points="271.26 186.92 270.94 186.92 252.58 203.98 263.19 203.98 271.26 196.48 271.26 186.92"/><rect class="cls-53" x="209.45" y="169.15" width="43.98" height="24.05"/><path class="cls-54" d="M119.77,67.05l2.93-.87c0-.5.08-1,.08-1.5a9.43,9.43,0,0,0-.08-1.5l-2.93-.86h-.11a9.9,9.9,0,0,0-.56-1.75l.07-.08L121.05,58a13.54,13.54,0,0,0-1.77-2.42l-2.88,1h-.1a9.78,9.78,0,0,0-1.48-1.07h0l.08-3.06a13,13,0,0,0-2.85-.93L110.31,54l-.06.09h-1.83l-.06-.09-1.73-2.52a13,13,0,0,0-2.85.93l.08,3.06v.11a9.78,9.78,0,0,0-1.48,1.07h-.1l-2.88-1A13.47,13.47,0,0,0,97.64,58l1.86,2.42.07.08a10.18,10.18,0,0,0-.52,1.79H99L96,63.15c0,.5-.08,1-.08,1.5s0,1,.08,1.5L99,67h.1a9.54,9.54,0,0,0,.56,1.74l-.07.09-1.86,2.41a13.61,13.61,0,0,0,1.77,2.43l2.88-1h.1a10.31,10.31,0,0,0,1.48,1.07v.11l-.08,3.06a13,13,0,0,0,2.85.93l1.73-2.52.06-.1c.3,0,.61.05.92.05a5.49,5.49,0,0,0,.91-.05l.06.1,1.69,2.52a13,13,0,0,0,2.85-.93l-.08-3.06v-.11a10.31,10.31,0,0,0,1.48-1.07h.1l2.88,1a13.18,13.18,0,0,0,1.77-2.37l-1.86-2.41-.07-.09a9.54,9.54,0,0,0,.56-1.74Zm-10.43,3.13a5.5,5.5,0,1,1,5.49-5.51h0A5.51,5.51,0,0,1,109.34,70.18Z"/><path class="cls-55" d="M112.92,99.09l4.58-1.44a22.89,22.89,0,0,0-.37-3.6l-4.78-.46a14.69,14.69,0,0,0-.56-1.7l3.6-3.19a22,22,0,0,0-1.8-3.12l-4.54,1.52c-.38-.46-.78-.91-1.2-1.33l2-4.37a21.71,21.71,0,0,0-2.91-2.13l-3.55,3.25c-.53-.27-1.08-.51-1.64-.73V77a21.11,21.11,0,0,0-3.53-.75l-1.91,4.4h-1.8l-1.91-4.4a21.58,21.58,0,0,0-3.55.76v4.8c-.56.22-1.11.46-1.64.73l-3.54-3.25a22.34,22.34,0,0,0-2.82,2.12l2,4.37c-.42.42-.82.87-1.2,1.33l-4.6-1.52a22,22,0,0,0-1.8,3.12l3.6,3.19a16.9,16.9,0,0,0-.56,1.7l-4.78.46a22.89,22.89,0,0,0-.37,3.6l4.58,1.44a17.59,17.59,0,0,0,.18,1.78l-4.18,2.37a21.86,21.86,0,0,0,1.13,3.43l4.78-.54a16,16,0,0,0,.9,1.55l-2.86,3.86a21.22,21.22,0,0,0,2.42,2.68l4.14-2.43c.47.36.95.69,1.45,1l-1,4.7a23.14,23.14,0,0,0,3.3,1.46L91,115a17.75,17.75,0,0,0,1.76.37l1,4.71c.6,0,1.2.08,1.81.08a13.63,13.63,0,0,0,1.81-.08l1-4.71a17.75,17.75,0,0,0,1.76-.37l2.67,4a23.14,23.14,0,0,0,3.3-1.46l-1-4.7c.5-.31,1-.64,1.45-1l4.14,2.43a21.22,21.22,0,0,0,2.42-2.68l-2.86-3.86a16,16,0,0,0,.9-1.55l4.78.54a22.87,22.87,0,0,0,1.11-3.43l-4.18-2.37A16.08,16.08,0,0,0,112.92,99.09Zm-17.5,8a8.91,8.91,0,1,1,8.91-8.91h0a8.91,8.91,0,0,1-8.91,8.88Z"/><path class="cls-56" d="M84.56,185.5h0a6.13,6.13,0,0,0-5.66,3.79L63.78,225.78h41.56L90.22,189.29A6.13,6.13,0,0,0,84.56,185.5Z"/><path class="cls-57" d="M111.34,229.86H57.78a2,2,0,0,1-2-2h0a2,2,0,0,1,2-2h53.56a2,2,0,0,1,2,2h0A2,2,0,0,1,111.34,229.86Z"/><polygon class="cls-44" points="91 191.18 78.11 191.18 74.84 199.08 94.28 199.08 91 191.18"/><polygon class="cls-44" points="68.04 215.49 101.07 215.49 97.8 207.59 71.32 207.59 68.04 215.49"/><path class="cls-58" d="M302.23,196.56h0a6.58,6.58,0,0,0-6.08,4.06L279.9,239.84h44.66l-16.25-39.22A6.58,6.58,0,0,0,302.23,196.56Z"/><rect class="cls-59" x="271.33" y="239.84" width="61.79" height="4.39" rx="2.19"/><polygon class="cls-44" points="309.16 202.66 295.3 202.66 291.79 211.15 312.67 211.15 309.16 202.66"/><polygon class="cls-44" points="284.48 228.78 319.98 228.78 316.46 220.29 288 220.29 284.48 228.78"/><path class="cls-60" d="M207.86,31.6a2.83,2.83,0,0,1-3.34,0V27.82h3.34Z"/><path class="cls-61" d="M234.83,65.88a3.79,3.79,0,0,0-2.45-4.7l-14.33-3.9-10.93-.19,1.17,3.68a6.25,6.25,0,0,0,6,6.51h14l1.61,12.38,4.81-1Z"/><path class="cls-62" d="M239.56,83.76a2.61,2.61,0,0,0-3.51-2.33l-1.31.48V78.68l-4.81,1,.61,4.68a2,2,0,0,0,1.56,2.36,2,2,0,0,0,.34,0l6.25-2a.9.9,0,0,0,.86-.93Z"/><path class="cls-63" d="M205.16,30.16a5.71,5.71,0,0,1-2.3-1.17,5.52,5.52,0,0,1-1.26-3.34q-.22-1.78-.3-3.57a2.09,2.09,0,0,1,.2-1.23,2,2,0,0,1,1.41-.74,10.79,10.79,0,0,1,6.48.86,22.22,22.22,0,0,0,.21,5.76,4.09,4.09,0,0,1-.15,2.84,2.46,2.46,0,0,1-2,1A6.62,6.62,0,0,1,205.16,30.16Z"/><path class="cls-64" d="M200.49,20.85a26.9,26.9,0,0,0,.27,6.08,4.39,4.39,0,0,0,.32,1.18,1.64,1.64,0,0,0,.83.87,1.58,1.58,0,0,0,1.63-.36,2.87,2.87,0,0,0,.8-1.55c.1-.43-.38-.72-.73-1a3,3,0,0,1-.94-.92,1.16,1.16,0,0,1,0-1.14,1,1,0,0,1,1-.49.87.87,0,0,1,.72.82c.19-.14.43-.28.61-.42a2.4,2.4,0,0,1-.9-1.51,2.28,2.28,0,0,1,.41-1.68A5.79,5.79,0,0,0,200.49,20.85Z"/><path class="cls-65" d="M211.54,31.92l-3.68-.32h-3.34l-5.35.55-1.58,25.51,16.28-.57-1.69-25A3.55,3.55,0,0,0,211.54,31.92Z"/><path class="cls-66" d="M216.79,53.88l-2.36-19.17a3.2,3.2,0,0,0-2.25-2.66l1.69,25L215.8,57Z"/><path class="cls-67" d="M199.17,32.15l-.92.15a2.58,2.58,0,0,0-2.06,1.82l-4,13.55a3,3,0,0,0,1.49,3.55l10,5.29,1.44-1.92-8.29-6.76,1.67-5.5Z"/><path class="cls-68" d="M205.16,54.59a5.71,5.71,0,0,1,2.5.19l-.29,1.42a2.92,2.92,0,0,1-2.36.31,1.07,1.07,0,0,1-1.29,0Z"/><polygon class="cls-69" points="205.23 57.28 219.7 57.28 224.35 46.48 209.87 46.48 205.23 57.28"/><path class="cls-70" d="M226.45,65.88a3.75,3.75,0,0,0-2.51-4.66l-.16,0-15.55-3.9-10.64.38v3.11a6.5,6.5,0,0,0,6.51,6.51h15.28L217.44,80h4.78Z"/><path class="cls-71" d="M224.05,83.07h-2.76l.92-3.08h-4.78l-.66,4.35a2.08,2.08,0,0,0,1.74,2.38l.32,0h7a.93.93,0,0,0,.93-.93A2.74,2.74,0,0,0,224.05,83.07Z"/><path class="cls-72" d="M211.42,19.7l-1.85.2a4.7,4.7,0,0,0-9.24,1.43v.45c3.12-.13,6.27-.38,9.38-.81l1.79-.14a.57.57,0,0,0,.57-.57.58.58,0,0,0-.58-.57h-.07Z"/><path class="cls-73" d="M28.27,202.82l-10.57-.24c4.78,13.67,8.06,26.13,8.09,36h4.78C31.77,229,30.46,216.46,28.27,202.82Z"/><path class="cls-74" d="M33.19,241.63H30.43l.14-3.08H25.79l.44,4.35a2.86,2.86,0,0,0,2.67,2.4h6.15a.7.7,0,0,0,.74-.66.84.84,0,0,0,0-.27C35.32,242.86,35.1,241.63,33.19,241.63Z"/><path class="cls-75" d="M24.05,203.77l-10.5-.25c1.29,13.67,1.4,26.13-1.07,36h4.78C20.88,230,22.77,217.41,24.05,203.77Z"/><path class="cls-76" d="M19.1,242.58H16.34l.92-3.09H12.48l-.66,4.35a2.1,2.1,0,0,0,1.76,2.38l.3,0h7a.94.94,0,0,0,.94-.93A2.74,2.74,0,0,0,19.1,242.58Z"/><path class="cls-77" d="M12.43,183.22l4.73-.79L20.5,182h3.23l3.83-10.84L22,158.74l2.42-1.46,7.35,13a3.45,3.45,0,0,1,.33,2.72l-4.6,15.52.75,14.3s-7.62,2.5-14.65.7l-1.12-12.91L2.88,181.5a5.43,5.43,0,0,1-1.67-3.6L.46,165.54l2.79.24,2.27,11.63Z"/><path class="cls-78" d="M22,158.74l-.68-1.3A2.15,2.15,0,0,1,21.6,155L24.34,152l.54,1.35a2.33,2.33,0,0,1-.51,2.54l-.47.47.47.9Z"/><path class="cls-79" d="M3.25,165.78v-.24A2.22,2.22,0,0,1,3.9,164l.63-.62-2.18-3.51L1.05,161a2.88,2.88,0,0,0-1,2.76l.36,1.82Z"/><path class="cls-60" d="M20.5,182.43a2.83,2.83,0,0,1-3.34,0v-3.78H20.5Z"/><path class="cls-80" d="M19.47,181.31a5.59,5.59,0,0,1-2.57-.16,5.54,5.54,0,0,1-2.48-2.58c-.6-1-1.16-2.09-1.68-3.16a2.16,2.16,0,0,1-.3-1.21,2,2,0,0,1,1-1.23,10.78,10.78,0,0,1,6.29-1.77,22.19,22.19,0,0,0,2.46,5.21,4,4,0,0,1,1,2.67,2.45,2.45,0,0,1-1.44,1.73A6.62,6.62,0,0,1,19.47,181.31Z"/><path class="cls-81" d="M11.51,174.6a27.7,27.7,0,0,0,2.65,5.48,4.33,4.33,0,0,0,.76,1,1.47,1.47,0,0,0,2.08.08,1.5,1.5,0,0,0,.38-.58,2.88,2.88,0,0,0,.13-1.74c-.08-.43-.64-.51-1.06-.62a3.18,3.18,0,0,1-1.23-.47,1.18,1.18,0,0,1-.43-1.06,1,1,0,0,1,.73-.84.91.91,0,0,1,1,.47c.11-.21.28-.43.39-.64A2.23,2.23,0,0,1,15.2,173,5.83,5.83,0,0,0,11.51,174.6Z"/><path class="cls-82" d="M21.11,169.23l-1.63.92a4.7,4.7,0,0,0-7.92,5,3.72,3.72,0,0,0,.21.39c2.81-1.34,5.61-2.82,8.3-4.43l1.58-.84a.55.55,0,0,0,.24-.75l0-.06A.58.58,0,0,0,21.11,169.23Z"/><path class="cls-83" d="M29.3,126.82,2.1,153.9a7.33,7.33,0,0,0,.21,10.38l.25.23a7.47,7.47,0,0,0,10.25-.59l26-25.85a13.52,13.52,0,0,0,16.85-9l.15-.53a.83.83,0,0,0-.6-1,.81.81,0,0,0-.61.07l-8.74,4.6-7.51-4.75.35-8.87,8.74-4.6a.84.84,0,0,0,.34-1.15.8.8,0,0,0-.44-.39,13.54,13.54,0,0,0-18.07,14.43ZM4.9,156.41a3.55,3.55,0,1,1,.11,5l0,0A3.55,3.55,0,0,1,4.9,156.41Z"/><path class="cls-84" d="M160.18,185.3l-15.72-12.47a19.77,19.77,0,0,0-4.34-3.55l-2.72-1.88a.63.63,0,0,0-.87.17h0a.63.63,0,0,0,.11.81l2.56,2.24s-.85,4.3,3.74,4.19l15.62,14.47h1.32l1-3.26Z"/><path class="cls-60" d="M163.94,185.35a2.64,2.64,0,0,0,3.13.28v-3.36h-3.13Z"/><path class="cls-85" d="M162.76,220.39l-5.62.52a155.2,155.2,0,0,0,1.39,22.59,2.24,2.24,0,0,0,2.21-.13h0C160.38,232.71,162.76,220.39,162.76,220.39Z"/><path class="cls-86" d="M158.53,243.5a22.69,22.69,0,0,0-5.87,2.66h8.72c-.26-.92-.46-1.86-.63-2.8h0A2.23,2.23,0,0,1,158.53,243.5Z"/><path class="cls-87" d="M171.47,220.39l-5.62.52a85.21,85.21,0,0,0,2.77,22.59,2.24,2.24,0,0,0,2.21-.13h0A154.65,154.65,0,0,1,171.47,220.39Z"/><path class="cls-88" d="M168.62,243.5a22.69,22.69,0,0,0-5.87,2.66h8.72c-.26-.92-.46-1.86-.63-2.8h0A2.23,2.23,0,0,1,168.62,243.5Z"/><path class="cls-89" d="M171.42,205.93,172.84,221s-9.9,2.11-16.88,0l2.39-15.64Z"/><path class="cls-90" d="M166.15,184a5.29,5.29,0,0,0,2.15-1.09,5.11,5.11,0,0,0,1.18-3.13c.14-1.11.23-2.23.28-3.34a2,2,0,0,0-.18-1.15,1.84,1.84,0,0,0-1.32-.69,10.07,10.07,0,0,0-6.07.8,20.7,20.7,0,0,1-.19,5.39,3.73,3.73,0,0,0,.14,2.65,2.29,2.29,0,0,0,1.87,1A6.29,6.29,0,0,0,166.15,184Z"/><path class="cls-91" d="M172.65,180.58c-.41-.38-1.08-.47-1.38-.94s-.09-1.13,0-1.7a3.36,3.36,0,0,0-5.51-3.08,3.1,3.1,0,0,0,.08,3.23,8.83,8.83,0,0,1,.56.8,3.39,3.39,0,0,1,.32,1.21c.12.85.25,1.7.38,2.55l.54,3.56a8.76,8.76,0,0,0,.45,1.9,4.33,4.33,0,0,0,2.88,2.54,3.49,3.49,0,0,0,2.7-.32,2.52,2.52,0,0,0,1.21-2.37c-.18-1.46-1.78-2.44-2-3.9a7.19,7.19,0,0,1,.16-1.79A2,2,0,0,0,172.65,180.58Z"/><path class="cls-92" d="M160.18,185.3h3.76a4.25,4.25,0,0,0,3.13.28l5.1,2.06-.75,18.24s-8.21,1.1-13.07-.55l.37-10.42s-3.95-3,.64-6.33Z"/><polygon class="cls-18" points="163.3 191.25 160.89 202.9 168.12 204.74 170.61 193.27 163.3 191.25"/><path class="cls-93" d="M172.17,187.69s-2.81,1.49-1.28,5.47l.81,8.32-7.76-1.24-2.2-1.47.29-1.37s-3.35.59-.74,3.57l2,1.15,9,1.94a2.26,2.26,0,0,0,2.69-1.73,2.73,2.73,0,0,0,.05-.5C175.05,197.48,174.56,189.45,172.17,187.69Z"/><path class="cls-94" d="M166.42,170.75a5,5,0,0,0-4.91,3.68l-2-.22a.6.6,0,0,0-.22,1.18h.1l1.89.15c3.26.45,6.58.72,9.86.85v-.47A5,5,0,0,0,166.42,170.75Z"/></g></g></g></svg>